%TF.GenerationSoftware,KiCad,Pcbnew,8.0.6*%
%TF.CreationDate,2025-10-03T10:38:39-07:00*%
%TF.ProjectId,cnft-tpl-esp32cam,636e6674-2d74-4706-9c2d-657370333263,rev?*%
%TF.SameCoordinates,Original*%
%TF.FileFunction,Copper,L2,Bot*%
%TF.FilePolarity,Positive*%
%FSLAX46Y46*%
G04 Gerber Fmt 4.6, Leading zero omitted, Abs format (unit mm)*
G04 Created by KiCad (PCBNEW 8.0.6) date 2025-10-03 10:38:39*
%MOMM*%
%LPD*%
G01*
G04 APERTURE LIST*
%TA.AperFunction,ComponentPad*%
%ADD10R,1.700000X1.700000*%
%TD*%
%TA.AperFunction,ComponentPad*%
%ADD11O,1.700000X1.700000*%
%TD*%
%TA.AperFunction,ViaPad*%
%ADD12C,0.600000*%
%TD*%
%TA.AperFunction,Conductor*%
%ADD13C,0.400000*%
%TD*%
%TA.AperFunction,Conductor*%
%ADD14C,0.500000*%
%TD*%
%TA.AperFunction,Conductor*%
%ADD15C,0.300000*%
%TD*%
G04 APERTURE END LIST*
D10*
%TO.P,SW1,1,1*%
%TO.N,Net-(JP2-B)*%
X15118400Y49835200D03*
D11*
%TO.P,SW1,2,2*%
%TO.N,VDD*%
X12578400Y49835200D03*
%TD*%
D10*
%TO.P,J2,1,Pin_1*%
%TO.N,unconnected-(J2-Pin_1-Pad1)*%
X4114800Y8880000D03*
D11*
%TO.P,J2,2,Pin_2*%
%TO.N,unconnected-(J2-Pin_2-Pad2)*%
X4114800Y11420000D03*
%TO.P,J2,3,Pin_3*%
%TO.N,unconnected-(J2-Pin_3-Pad3)*%
X4114800Y13960000D03*
%TO.P,J2,4,Pin_4*%
%TO.N,unconnected-(J2-Pin_4-Pad4)*%
X4114800Y16500000D03*
%TO.P,J2,5,Pin_5*%
%TO.N,unconnected-(J2-Pin_5-Pad5)*%
X4114800Y19040000D03*
%TO.P,J2,6,Pin_6*%
%TO.N,DONE*%
X4114800Y21580000D03*
%TO.P,J2,7,Pin_7*%
%TO.N,GND*%
X4114800Y24120000D03*
%TO.P,J2,8,Pin_8*%
%TO.N,PWOUT*%
X4114800Y26660000D03*
%TD*%
D10*
%TO.P,J5,1,Pin_1*%
%TO.N,GPIO3*%
X7950000Y8890000D03*
D11*
%TO.P,J5,2,Pin_2*%
%TO.N,PWOUT*%
X10490000Y8890000D03*
%TO.P,J5,3,Pin_3*%
%TO.N,GND*%
X13030000Y8890000D03*
%TD*%
D10*
%TO.P,J1,1,Pin_1*%
%TO.N,unconnected-(J1-Pin_1-Pad1)*%
X26980000Y8880000D03*
D11*
%TO.P,J1,2,Pin_2*%
%TO.N,GPIO1*%
X26980000Y11420000D03*
%TO.P,J1,3,Pin_3*%
%TO.N,GPIO3*%
X26980000Y13960000D03*
%TO.P,J1,4,Pin_4*%
%TO.N,unconnected-(J1-Pin_4-Pad4)*%
X26980000Y16500000D03*
%TO.P,J1,5,Pin_5*%
%TO.N,GND*%
X26980000Y19040000D03*
%TO.P,J1,6,Pin_6*%
%TO.N,unconnected-(J1-Pin_6-Pad6)*%
X26980000Y21580000D03*
%TO.P,J1,7,Pin_7*%
%TO.N,unconnected-(J1-Pin_7-Pad7)*%
X26980000Y24120000D03*
%TO.P,J1,8,Pin_8*%
%TO.N,unconnected-(J1-Pin_8-Pad8)*%
X26980000Y26660000D03*
%TD*%
D10*
%TO.P,J4,1,Pin_1*%
%TO.N,GPIO1*%
X23114000Y8890000D03*
D11*
%TO.P,J4,2,Pin_2*%
%TO.N,PWOUT*%
X20574000Y8890000D03*
%TO.P,J4,3,Pin_3*%
%TO.N,GND*%
X18034000Y8890000D03*
%TD*%
D12*
%TO.N,GND*%
X17018000Y37846000D03*
X12192000Y40132000D03*
X13462000Y35306000D03*
%TO.N,PWOUT*%
X13462000Y36576000D03*
X23901400Y36576000D03*
%TO.N,Net-(JP2-B)*%
X19304000Y49784000D03*
X20320000Y40132000D03*
%TO.N,Net-(U1-DRV)*%
X13462000Y41148000D03*
X16002000Y43180000D03*
%TO.N,GND*%
X7620000Y34798000D03*
%TD*%
D13*
%TO.N,GPIO1*%
X23114000Y10414000D02*
X24120000Y11420000D01*
X23114000Y8890000D02*
X23114000Y10414000D01*
X24120000Y11420000D02*
X26980000Y11420000D01*
D14*
%TO.N,PWOUT*%
X10490000Y23088800D02*
X10490000Y8890000D01*
X4114800Y26660000D02*
X6918800Y26660000D01*
D15*
X23901400Y36576000D02*
X13462000Y36576000D01*
D14*
X6918800Y26660000D02*
X10490000Y23088800D01*
D15*
%TO.N,Net-(JP2-B)*%
X20320000Y40132000D02*
X20320000Y48768000D01*
X20320000Y48768000D02*
X19304000Y49784000D01*
%TO.N,Net-(U1-DRV)*%
X15494000Y43180000D02*
X16002000Y43180000D01*
X13462000Y41148000D02*
X15494000Y43180000D01*
%TD*%
%TA.AperFunction,Conductor*%
%TO.N,GND*%
G36*
X26984010Y53332814D02*
G01*
X26986217Y53332786D01*
X27177876Y53330277D01*
X27187818Y53329690D01*
X27574081Y53289091D01*
X27585319Y53287311D01*
X27964518Y53206707D01*
X27975525Y53203758D01*
X28344217Y53083961D01*
X28354847Y53079881D01*
X28708994Y52922203D01*
X28719146Y52917031D01*
X29054876Y52723196D01*
X29064427Y52716994D01*
X29378028Y52489149D01*
X29378054Y52489130D01*
X29386920Y52481950D01*
X29674996Y52222565D01*
X29683064Y52214497D01*
X29942449Y51926421D01*
X29949629Y51917555D01*
X30177487Y51603937D01*
X30183701Y51594368D01*
X30377526Y51258654D01*
X30382705Y51248489D01*
X30540375Y50894359D01*
X30544464Y50883707D01*
X30664255Y50515032D01*
X30667208Y50504012D01*
X30747807Y50124835D01*
X30749592Y50113566D01*
X30790188Y49727332D01*
X30790776Y49717365D01*
X30793314Y49523511D01*
X30793323Y49522084D01*
X30793323Y3803522D01*
X30793313Y3802072D01*
X30790734Y3608277D01*
X30790147Y3598334D01*
X30749552Y3212082D01*
X30747767Y3200814D01*
X30667174Y2821637D01*
X30664221Y2810615D01*
X30544436Y2441951D01*
X30540348Y2431300D01*
X30382674Y2077153D01*
X30377494Y2066988D01*
X30183677Y1731281D01*
X30177463Y1721712D01*
X29949613Y1408100D01*
X29942433Y1399233D01*
X29683047Y1111152D01*
X29674980Y1103085D01*
X29386901Y843695D01*
X29378034Y836515D01*
X29064424Y608661D01*
X29054856Y602447D01*
X28719153Y408626D01*
X28708987Y403446D01*
X28354853Y245772D01*
X28344202Y241683D01*
X27975525Y121890D01*
X27964504Y118937D01*
X27585331Y38339D01*
X27574062Y36554D01*
X27231970Y597D01*
X27220576Y0D01*
X3885184Y0D01*
X3873791Y597D01*
X3532562Y36461D01*
X3521293Y38246D01*
X3142105Y118842D01*
X3131088Y121794D01*
X2936536Y185007D01*
X2762408Y241584D01*
X2751757Y245672D01*
X2397604Y403350D01*
X2387438Y408530D01*
X2051713Y602359D01*
X2042145Y608573D01*
X1728527Y836429D01*
X1719660Y843609D01*
X1719564Y843695D01*
X1431572Y1103005D01*
X1423504Y1111073D01*
X1164108Y1399161D01*
X1156928Y1408028D01*
X1156876Y1408100D01*
X929067Y1721653D01*
X922863Y1731206D01*
X729029Y2066939D01*
X723849Y2077105D01*
X566171Y2431258D01*
X562083Y2441909D01*
X442289Y2810602D01*
X439344Y2821594D01*
X358745Y3200794D01*
X356960Y3212063D01*
X348568Y3291904D01*
X1990885Y3291904D01*
X1990885Y3043743D01*
X2031731Y2798965D01*
X2031731Y2798961D01*
X2107885Y2577132D01*
X2112309Y2564247D01*
X2167190Y2462836D01*
X2230422Y2345992D01*
X2382846Y2150160D01*
X2382851Y2150154D01*
X2565424Y1982084D01*
X2750508Y1861163D01*
X2773178Y1846352D01*
X3000439Y1746666D01*
X3241008Y1685746D01*
X3488323Y1665252D01*
X3735638Y1685746D01*
X3976207Y1746666D01*
X4203468Y1846352D01*
X4411221Y1982084D01*
X4514441Y2077105D01*
X4593794Y2150154D01*
X4593795Y2150157D01*
X4593800Y2150160D01*
X4746225Y2345995D01*
X4864337Y2564247D01*
X4944915Y2798964D01*
X4985761Y3043742D01*
X4988323Y3167823D01*
X4985761Y3291904D01*
X26120885Y3291904D01*
X26120885Y3043743D01*
X26161731Y2798965D01*
X26161731Y2798961D01*
X26237885Y2577132D01*
X26242309Y2564247D01*
X26297190Y2462836D01*
X26360422Y2345992D01*
X26512846Y2150160D01*
X26512851Y2150154D01*
X26695424Y1982084D01*
X26880508Y1861163D01*
X26903178Y1846352D01*
X27130439Y1746666D01*
X27371008Y1685746D01*
X27618323Y1665252D01*
X27865638Y1685746D01*
X28106207Y1746666D01*
X28333468Y1846352D01*
X28541221Y1982084D01*
X28644441Y2077105D01*
X28723794Y2150154D01*
X28723795Y2150157D01*
X28723800Y2150160D01*
X28876225Y2345995D01*
X28994337Y2564247D01*
X29074915Y2798964D01*
X29115761Y3043742D01*
X29118323Y3167823D01*
X29115761Y3291904D01*
X29074915Y3536682D01*
X28994337Y3771399D01*
X28876225Y3989651D01*
X28876223Y3989655D01*
X28723799Y4185487D01*
X28723794Y4185493D01*
X28541221Y4353563D01*
X28333473Y4489291D01*
X28333471Y4489292D01*
X28333468Y4489294D01*
X28106207Y4588980D01*
X27865638Y4649900D01*
X27618323Y4670393D01*
X27371008Y4649900D01*
X27250723Y4619440D01*
X27130438Y4588980D01*
X27130436Y4588979D01*
X26903178Y4489294D01*
X26903172Y4489291D01*
X26695424Y4353563D01*
X26512851Y4185493D01*
X26512846Y4185487D01*
X26360422Y3989655D01*
X26242309Y3771399D01*
X26242307Y3771394D01*
X26161731Y3536686D01*
X26161731Y3536682D01*
X26120885Y3291904D01*
X4985761Y3291904D01*
X4944915Y3536682D01*
X4864337Y3771399D01*
X4746225Y3989651D01*
X4746223Y3989655D01*
X4593799Y4185487D01*
X4593794Y4185493D01*
X4411221Y4353563D01*
X4203473Y4489291D01*
X4203471Y4489292D01*
X4203468Y4489294D01*
X3976207Y4588980D01*
X3735638Y4649900D01*
X3488323Y4670393D01*
X3241008Y4649900D01*
X3120723Y4619440D01*
X3000438Y4588980D01*
X3000436Y4588979D01*
X2773178Y4489294D01*
X2773172Y4489291D01*
X2565424Y4353563D01*
X2382851Y4185493D01*
X2382846Y4185487D01*
X2230422Y3989655D01*
X2112309Y3771399D01*
X2112307Y3771394D01*
X2031731Y3536686D01*
X2031731Y3536682D01*
X1990885Y3291904D01*
X348568Y3291904D01*
X348567Y3291916D01*
X316366Y3598301D01*
X315779Y3608297D01*
X313332Y3802111D01*
X313323Y3803487D01*
X313323Y9774866D01*
X2964300Y9774866D01*
X2964300Y7985142D01*
X2964302Y7985121D01*
X2967214Y7960012D01*
X2967214Y7960010D01*
X2967215Y7960009D01*
X3012594Y7857235D01*
X3092035Y7777794D01*
X3194809Y7732415D01*
X3219935Y7729500D01*
X5009664Y7729501D01*
X5034791Y7732415D01*
X5137565Y7777794D01*
X5217006Y7857235D01*
X5262385Y7960009D01*
X5265300Y7985135D01*
X5265299Y9774864D01*
X5264139Y9784866D01*
X6799500Y9784866D01*
X6799500Y7995142D01*
X6799502Y7995121D01*
X6802414Y7970012D01*
X6802414Y7970010D01*
X6802415Y7970009D01*
X6847794Y7867235D01*
X6927235Y7787794D01*
X7030009Y7742415D01*
X7055135Y7739500D01*
X8844864Y7739501D01*
X8869991Y7742415D01*
X8972765Y7787794D01*
X9052206Y7867235D01*
X9097585Y7970009D01*
X9100500Y7995135D01*
X9100499Y9784864D01*
X9097585Y9809991D01*
X9052206Y9912765D01*
X8972765Y9992206D01*
X8869991Y10037585D01*
X8844865Y10040500D01*
X8844864Y10040500D01*
X7055141Y10040500D01*
X7055120Y10040498D01*
X7030011Y10037586D01*
X6927234Y9992206D01*
X6847794Y9912766D01*
X6802415Y9809991D01*
X6799500Y9784866D01*
X5264139Y9784866D01*
X5262385Y9799991D01*
X5217006Y9902765D01*
X5137565Y9982206D01*
X5034791Y10027585D01*
X5009665Y10030500D01*
X5009664Y10030500D01*
X3219941Y10030500D01*
X3219920Y10030498D01*
X3194811Y10027586D01*
X3092034Y9982206D01*
X3012594Y9902766D01*
X2967215Y9799991D01*
X2964300Y9774866D01*
X313323Y9774866D01*
X313323Y11420001D01*
X2959371Y11420001D01*
X2959371Y11420000D01*
X2979043Y11207691D01*
X3037394Y11002613D01*
X3132432Y10811747D01*
X3132434Y10811745D01*
X3260928Y10641593D01*
X3418498Y10497948D01*
X3447659Y10479892D01*
X3599775Y10385706D01*
X3599777Y10385704D01*
X3599779Y10385704D01*
X3599781Y10385702D01*
X3798602Y10308679D01*
X4008190Y10269500D01*
X4008191Y10269500D01*
X4221409Y10269500D01*
X4221410Y10269500D01*
X4430998Y10308679D01*
X4629819Y10385702D01*
X4811102Y10497948D01*
X4968672Y10641593D01*
X5097166Y10811745D01*
X5192205Y11002611D01*
X5250556Y11207690D01*
X5270229Y11420000D01*
X5250556Y11632310D01*
X5192205Y11837389D01*
X5120738Y11980916D01*
X5097167Y12028254D01*
X4968670Y12198409D01*
X4811103Y12342051D01*
X4811099Y12342054D01*
X4629824Y12454295D01*
X4629822Y12454297D01*
X4430998Y12531321D01*
X4430994Y12531322D01*
X4221410Y12570500D01*
X4008190Y12570500D01*
X4008189Y12570500D01*
X3798605Y12531322D01*
X3798601Y12531321D01*
X3599777Y12454297D01*
X3599775Y12454295D01*
X3418500Y12342054D01*
X3418496Y12342051D01*
X3260929Y12198409D01*
X3132432Y12028254D01*
X3037394Y11837388D01*
X2979043Y11632310D01*
X2959371Y11420001D01*
X313323Y11420001D01*
X313323Y13960001D01*
X2959371Y13960001D01*
X2959371Y13960000D01*
X2979043Y13747691D01*
X3037394Y13542613D01*
X3132432Y13351747D01*
X3132434Y13351745D01*
X3260928Y13181593D01*
X3418498Y13037948D01*
X3418500Y13037947D01*
X3599775Y12925706D01*
X3599777Y12925704D01*
X3599779Y12925704D01*
X3599781Y12925702D01*
X3798602Y12848679D01*
X4008190Y12809500D01*
X4008191Y12809500D01*
X4221409Y12809500D01*
X4221410Y12809500D01*
X4430998Y12848679D01*
X4629819Y12925702D01*
X4811102Y13037948D01*
X4968672Y13181593D01*
X5097166Y13351745D01*
X5192205Y13542611D01*
X5250556Y13747690D01*
X5270229Y13960000D01*
X5250556Y14172310D01*
X5192205Y14377389D01*
X5144882Y14472427D01*
X5097167Y14568254D01*
X4968670Y14738409D01*
X4811103Y14882051D01*
X4811099Y14882054D01*
X4629824Y14994295D01*
X4629822Y14994297D01*
X4430998Y15071321D01*
X4430994Y15071322D01*
X4221410Y15110500D01*
X4008190Y15110500D01*
X4008189Y15110500D01*
X3798605Y15071322D01*
X3798601Y15071321D01*
X3599777Y14994297D01*
X3599775Y14994295D01*
X3418500Y14882054D01*
X3418496Y14882051D01*
X3260929Y14738409D01*
X3132432Y14568254D01*
X3037394Y14377388D01*
X2979043Y14172310D01*
X2959371Y13960001D01*
X313323Y13960001D01*
X313323Y16500001D01*
X2959371Y16500001D01*
X2959371Y16500000D01*
X2979043Y16287691D01*
X3037394Y16082613D01*
X3132432Y15891747D01*
X3132434Y15891745D01*
X3260928Y15721593D01*
X3418498Y15577948D01*
X3418500Y15577947D01*
X3599775Y15465706D01*
X3599777Y15465704D01*
X3599779Y15465704D01*
X3599781Y15465702D01*
X3798602Y15388679D01*
X4008190Y15349500D01*
X4008191Y15349500D01*
X4221409Y15349500D01*
X4221410Y15349500D01*
X4430998Y15388679D01*
X4629819Y15465702D01*
X4811102Y15577948D01*
X4968672Y15721593D01*
X5097166Y15891745D01*
X5192205Y16082611D01*
X5250556Y16287690D01*
X5270229Y16500000D01*
X5250556Y16712310D01*
X5192205Y16917389D01*
X5144882Y17012427D01*
X5097167Y17108254D01*
X4968670Y17278409D01*
X4811103Y17422051D01*
X4811099Y17422054D01*
X4629824Y17534295D01*
X4629822Y17534297D01*
X4430998Y17611321D01*
X4430994Y17611322D01*
X4221410Y17650500D01*
X4008190Y17650500D01*
X4008189Y17650500D01*
X3798605Y17611322D01*
X3798601Y17611321D01*
X3599777Y17534297D01*
X3599775Y17534295D01*
X3418500Y17422054D01*
X3418496Y17422051D01*
X3260929Y17278409D01*
X3132432Y17108254D01*
X3037394Y16917388D01*
X2979043Y16712310D01*
X2959371Y16500001D01*
X313323Y16500001D01*
X313323Y19040001D01*
X2959371Y19040001D01*
X2959371Y19040000D01*
X2979043Y18827691D01*
X3037394Y18622613D01*
X3132432Y18431747D01*
X3132434Y18431745D01*
X3260928Y18261593D01*
X3418498Y18117948D01*
X3599059Y18006149D01*
X3599775Y18005706D01*
X3599777Y18005704D01*
X3599779Y18005704D01*
X3599781Y18005702D01*
X3798602Y17928679D01*
X4008190Y17889500D01*
X4008191Y17889500D01*
X4221409Y17889500D01*
X4221410Y17889500D01*
X4430998Y17928679D01*
X4629819Y18005702D01*
X4811102Y18117948D01*
X4968672Y18261593D01*
X5097166Y18431745D01*
X5192205Y18622611D01*
X5250556Y18827690D01*
X5270229Y19040000D01*
X5264129Y19105826D01*
X5250556Y19252310D01*
X5223612Y19347007D01*
X5192205Y19457389D01*
X5097298Y19647990D01*
X5097167Y19648254D01*
X5054334Y19704973D01*
X4968672Y19818407D01*
X4811102Y19962052D01*
X4629824Y20074295D01*
X4629822Y20074297D01*
X4430998Y20151321D01*
X4430994Y20151322D01*
X4221410Y20190500D01*
X4008190Y20190500D01*
X4008189Y20190500D01*
X3798605Y20151322D01*
X3798601Y20151321D01*
X3599777Y20074297D01*
X3599775Y20074295D01*
X3418500Y19962054D01*
X3418496Y19962051D01*
X3260929Y19818409D01*
X3132432Y19648254D01*
X3037394Y19457388D01*
X2979043Y19252310D01*
X2959371Y19040001D01*
X313323Y19040001D01*
X313323Y21580001D01*
X2959371Y21580001D01*
X2959371Y21580000D01*
X2979043Y21367691D01*
X3037394Y21162613D01*
X3132432Y20971747D01*
X3132434Y20971745D01*
X3260928Y20801593D01*
X3418498Y20657948D01*
X3418500Y20657947D01*
X3599775Y20545706D01*
X3599777Y20545704D01*
X3599779Y20545704D01*
X3599781Y20545702D01*
X3798602Y20468679D01*
X4008190Y20429500D01*
X4008191Y20429500D01*
X4221409Y20429500D01*
X4221410Y20429500D01*
X4430998Y20468679D01*
X4629819Y20545702D01*
X4811102Y20657948D01*
X4968672Y20801593D01*
X5097166Y20971745D01*
X5192205Y21162611D01*
X5250556Y21367690D01*
X5270229Y21580000D01*
X5250556Y21792310D01*
X5192205Y21997389D01*
X5144882Y22092427D01*
X5097167Y22188254D01*
X4968670Y22358409D01*
X4811103Y22502051D01*
X4811099Y22502054D01*
X4629824Y22614295D01*
X4629822Y22614297D01*
X4430998Y22691321D01*
X4430994Y22691322D01*
X4221410Y22730500D01*
X4008190Y22730500D01*
X4008189Y22730500D01*
X3798605Y22691322D01*
X3798601Y22691321D01*
X3599777Y22614297D01*
X3599775Y22614295D01*
X3418500Y22502054D01*
X3418496Y22502051D01*
X3260929Y22358409D01*
X3132432Y22188254D01*
X3037394Y21997388D01*
X2979043Y21792310D01*
X2959371Y21580001D01*
X313323Y21580001D01*
X313323Y24270001D01*
X2973772Y24270001D01*
X2973773Y24270000D01*
X3637355Y24270000D01*
X3614800Y24185826D01*
X3614800Y24054174D01*
X3637355Y23970000D01*
X2973773Y23970000D01*
X2979537Y23907784D01*
X2979538Y23907783D01*
X3037861Y23702796D01*
X3037863Y23702792D01*
X3132859Y23512011D01*
X3261300Y23341930D01*
X3418799Y23198350D01*
X3418802Y23198347D01*
X3600001Y23086155D01*
X3600013Y23086149D01*
X3798729Y23009166D01*
X3798742Y23009162D01*
X3964800Y22978121D01*
X3964800Y23642555D01*
X4048974Y23620000D01*
X4180626Y23620000D01*
X4264800Y23642555D01*
X4264800Y22978122D01*
X4430857Y23009162D01*
X4430870Y23009166D01*
X4629586Y23086149D01*
X4629598Y23086155D01*
X4810797Y23198347D01*
X4810800Y23198350D01*
X4968299Y23341930D01*
X5096740Y23512011D01*
X5191736Y23702792D01*
X5191738Y23702796D01*
X5250061Y23907783D01*
X5250062Y23907784D01*
X5255827Y23970000D01*
X4592245Y23970000D01*
X4614800Y24054174D01*
X4614800Y24185826D01*
X4592245Y24270000D01*
X5255827Y24270000D01*
X5255827Y24270001D01*
X5250062Y24332217D01*
X5250061Y24332218D01*
X5191738Y24537205D01*
X5191736Y24537209D01*
X5096740Y24727990D01*
X4968299Y24898071D01*
X4810800Y25041651D01*
X4810797Y25041654D01*
X4629598Y25153846D01*
X4629586Y25153852D01*
X4430868Y25230836D01*
X4430858Y25230839D01*
X4264800Y25261881D01*
X4264800Y24597446D01*
X4180626Y24620000D01*
X4048974Y24620000D01*
X3964800Y24597446D01*
X3964800Y25261881D01*
X3964799Y25261881D01*
X3798741Y25230839D01*
X3798731Y25230836D01*
X3600013Y25153852D01*
X3600001Y25153846D01*
X3418802Y25041654D01*
X3418799Y25041651D01*
X3261300Y24898071D01*
X3132859Y24727990D01*
X3037863Y24537209D01*
X3037861Y24537205D01*
X2979538Y24332218D01*
X2979537Y24332217D01*
X2973772Y24270001D01*
X313323Y24270001D01*
X313323Y26660001D01*
X2959371Y26660001D01*
X2959371Y26660000D01*
X2979043Y26447691D01*
X3037394Y26242613D01*
X3132432Y26051747D01*
X3132434Y26051745D01*
X3260928Y25881593D01*
X3418498Y25737948D01*
X3418500Y25737947D01*
X3599775Y25625706D01*
X3599777Y25625704D01*
X3599779Y25625704D01*
X3599781Y25625702D01*
X3798602Y25548679D01*
X4008190Y25509500D01*
X4008191Y25509500D01*
X4221409Y25509500D01*
X4221410Y25509500D01*
X4430998Y25548679D01*
X4629819Y25625702D01*
X4811102Y25737948D01*
X4968672Y25881593D01*
X5097166Y26051745D01*
X5097168Y26051749D01*
X5099818Y26056028D01*
X5101581Y26054937D01*
X5143048Y26097165D01*
X5193415Y26109500D01*
X6645625Y26109500D01*
X6709694Y26088683D01*
X6722700Y26077575D01*
X9907575Y22892700D01*
X9938158Y22832676D01*
X9939500Y22815625D01*
X9939500Y9963042D01*
X9918683Y9898973D01*
X9887882Y9870369D01*
X9793697Y9812052D01*
X9793695Y9812050D01*
X9636129Y9668409D01*
X9507632Y9498254D01*
X9412594Y9307388D01*
X9354243Y9102310D01*
X9334571Y8890001D01*
X9334571Y8890000D01*
X9354243Y8677691D01*
X9412594Y8472613D01*
X9507632Y8281747D01*
X9507634Y8281745D01*
X9636128Y8111593D01*
X9793698Y7967948D01*
X9974259Y7856149D01*
X9974975Y7855706D01*
X9974977Y7855704D01*
X9974979Y7855704D01*
X9974981Y7855702D01*
X10173802Y7778679D01*
X10383390Y7739500D01*
X10383391Y7739500D01*
X10596609Y7739500D01*
X10596610Y7739500D01*
X10806198Y7778679D01*
X11005019Y7855702D01*
X11186302Y7967948D01*
X11343872Y8111593D01*
X11472366Y8281745D01*
X11567405Y8472611D01*
X11625756Y8677690D01*
X11645429Y8890000D01*
X11639329Y8955826D01*
X11631529Y9040001D01*
X11888972Y9040001D01*
X11888973Y9040000D01*
X12552555Y9040000D01*
X12530000Y8955826D01*
X12530000Y8824174D01*
X12552555Y8740000D01*
X11888973Y8740000D01*
X11894737Y8677784D01*
X11894738Y8677783D01*
X11953061Y8472796D01*
X11953063Y8472792D01*
X12048059Y8282011D01*
X12176500Y8111930D01*
X12333999Y7968350D01*
X12334002Y7968347D01*
X12515201Y7856155D01*
X12515213Y7856149D01*
X12713929Y7779166D01*
X12713942Y7779162D01*
X12880000Y7748121D01*
X12880000Y8412555D01*
X12964174Y8390000D01*
X13095826Y8390000D01*
X13180000Y8412555D01*
X13180000Y7748122D01*
X13346057Y7779162D01*
X13346070Y7779166D01*
X13544786Y7856149D01*
X13544798Y7856155D01*
X13725997Y7968347D01*
X13726000Y7968350D01*
X13883499Y8111930D01*
X14011940Y8282011D01*
X14106936Y8472792D01*
X14106938Y8472796D01*
X14165261Y8677783D01*
X14165262Y8677784D01*
X14171027Y8740000D01*
X13507445Y8740000D01*
X13530000Y8824174D01*
X13530000Y8955826D01*
X13507445Y9040000D01*
X14171027Y9040000D01*
X14171027Y9040001D01*
X16892972Y9040001D01*
X16892973Y9040000D01*
X17556555Y9040000D01*
X17534000Y8955826D01*
X17534000Y8824174D01*
X17556555Y8740000D01*
X16892973Y8740000D01*
X16898737Y8677784D01*
X16898738Y8677783D01*
X16957061Y8472796D01*
X16957063Y8472792D01*
X17052059Y8282011D01*
X17180500Y8111930D01*
X17337999Y7968350D01*
X17338002Y7968347D01*
X17519201Y7856155D01*
X17519213Y7856149D01*
X17717929Y7779166D01*
X17717942Y7779162D01*
X17884000Y7748121D01*
X17884000Y8412555D01*
X17968174Y8390000D01*
X18099826Y8390000D01*
X18184000Y8412555D01*
X18184000Y7748122D01*
X18350057Y7779162D01*
X18350070Y7779166D01*
X18548786Y7856149D01*
X18548798Y7856155D01*
X18729997Y7968347D01*
X18730000Y7968350D01*
X18887499Y8111930D01*
X19015940Y8282011D01*
X19110936Y8472792D01*
X19110938Y8472796D01*
X19169261Y8677783D01*
X19169262Y8677784D01*
X19175027Y8740000D01*
X18511445Y8740000D01*
X18534000Y8824174D01*
X18534000Y8890001D01*
X19418571Y8890001D01*
X19418571Y8890000D01*
X19438243Y8677691D01*
X19496594Y8472613D01*
X19591632Y8281747D01*
X19591634Y8281745D01*
X19720128Y8111593D01*
X19877698Y7967948D01*
X20058259Y7856149D01*
X20058975Y7855706D01*
X20058977Y7855704D01*
X20058979Y7855704D01*
X20058981Y7855702D01*
X20257802Y7778679D01*
X20467390Y7739500D01*
X20467391Y7739500D01*
X20680609Y7739500D01*
X20680610Y7739500D01*
X20890198Y7778679D01*
X21089019Y7855702D01*
X21270302Y7967948D01*
X21427872Y8111593D01*
X21556366Y8281745D01*
X21651405Y8472611D01*
X21709756Y8677690D01*
X21729429Y8890000D01*
X21723329Y8955826D01*
X21709756Y9102310D01*
X21682812Y9197007D01*
X21651405Y9307389D01*
X21556498Y9497990D01*
X21556367Y9498254D01*
X21513534Y9554973D01*
X21427872Y9668407D01*
X21300123Y9784866D01*
X21963500Y9784866D01*
X21963500Y7995142D01*
X21963502Y7995121D01*
X21966414Y7970012D01*
X21966414Y7970010D01*
X21966415Y7970009D01*
X22011794Y7867235D01*
X22091235Y7787794D01*
X22194009Y7742415D01*
X22219135Y7739500D01*
X24008864Y7739501D01*
X24033991Y7742415D01*
X24136765Y7787794D01*
X24216206Y7867235D01*
X24261585Y7970009D01*
X24264500Y7995135D01*
X24264499Y9774866D01*
X25829500Y9774866D01*
X25829500Y7985142D01*
X25829502Y7985121D01*
X25832414Y7960012D01*
X25832414Y7960010D01*
X25832415Y7960009D01*
X25877794Y7857235D01*
X25957235Y7777794D01*
X26060009Y7732415D01*
X26085135Y7729500D01*
X27874864Y7729501D01*
X27899991Y7732415D01*
X28002765Y7777794D01*
X28082206Y7857235D01*
X28127585Y7960009D01*
X28130500Y7985135D01*
X28130499Y9774864D01*
X28127585Y9799991D01*
X28082206Y9902765D01*
X28002765Y9982206D01*
X27899991Y10027585D01*
X27874865Y10030500D01*
X27874864Y10030500D01*
X26085141Y10030500D01*
X26085120Y10030498D01*
X26060011Y10027586D01*
X25957234Y9982206D01*
X25877794Y9902766D01*
X25832415Y9799991D01*
X25829500Y9774866D01*
X24264499Y9774866D01*
X24264499Y9784864D01*
X24261585Y9809991D01*
X24216206Y9912765D01*
X24136765Y9992206D01*
X24033991Y10037585D01*
X24008865Y10040500D01*
X23723500Y10040500D01*
X23659431Y10061317D01*
X23619835Y10115817D01*
X23614500Y10149500D01*
X23614500Y10161536D01*
X23635317Y10225605D01*
X23646425Y10238611D01*
X24295389Y10887575D01*
X24355413Y10918158D01*
X24372464Y10919500D01*
X25876489Y10919500D01*
X25940558Y10898683D01*
X25974062Y10859084D01*
X25997631Y10811749D01*
X25997633Y10811747D01*
X25997634Y10811745D01*
X26126128Y10641593D01*
X26283698Y10497948D01*
X26312859Y10479892D01*
X26464975Y10385706D01*
X26464977Y10385704D01*
X26464979Y10385704D01*
X26464981Y10385702D01*
X26663802Y10308679D01*
X26873390Y10269500D01*
X26873391Y10269500D01*
X27086609Y10269500D01*
X27086610Y10269500D01*
X27296198Y10308679D01*
X27495019Y10385702D01*
X27676302Y10497948D01*
X27833872Y10641593D01*
X27962366Y10811745D01*
X28057405Y11002611D01*
X28115756Y11207690D01*
X28135429Y11420000D01*
X28115756Y11632310D01*
X28057405Y11837389D01*
X27985938Y11980916D01*
X27962367Y12028254D01*
X27833870Y12198409D01*
X27676303Y12342051D01*
X27676299Y12342054D01*
X27495024Y12454295D01*
X27495022Y12454297D01*
X27296198Y12531321D01*
X27296194Y12531322D01*
X27086610Y12570500D01*
X26873390Y12570500D01*
X26873389Y12570500D01*
X26663805Y12531322D01*
X26663801Y12531321D01*
X26464977Y12454297D01*
X26464975Y12454295D01*
X26283700Y12342054D01*
X26283696Y12342051D01*
X26126129Y12198409D01*
X25997631Y12028252D01*
X25974062Y11980916D01*
X25926870Y11932842D01*
X25876489Y11920500D01*
X24054108Y11920500D01*
X23926814Y11886393D01*
X23812688Y11820502D01*
X22806686Y10814500D01*
X22806685Y10814501D01*
X22713499Y10721314D01*
X22647607Y10607186D01*
X22613500Y10479892D01*
X22613500Y10149500D01*
X22592683Y10085431D01*
X22538183Y10045835D01*
X22504500Y10040500D01*
X22219141Y10040500D01*
X22219120Y10040498D01*
X22194011Y10037586D01*
X22091234Y9992206D01*
X22011794Y9912766D01*
X21966415Y9809991D01*
X21963500Y9784866D01*
X21300123Y9784866D01*
X21270302Y9812052D01*
X21124498Y9902330D01*
X21089024Y9924295D01*
X21089022Y9924297D01*
X20890198Y10001321D01*
X20890194Y10001322D01*
X20680610Y10040500D01*
X20467390Y10040500D01*
X20467389Y10040500D01*
X20257805Y10001322D01*
X20257801Y10001321D01*
X20058977Y9924297D01*
X20058975Y9924295D01*
X19877700Y9812054D01*
X19877696Y9812051D01*
X19720129Y9668409D01*
X19591632Y9498254D01*
X19496594Y9307388D01*
X19438243Y9102310D01*
X19418571Y8890001D01*
X18534000Y8890001D01*
X18534000Y8955826D01*
X18511445Y9040000D01*
X19175027Y9040000D01*
X19175027Y9040001D01*
X19169262Y9102217D01*
X19169261Y9102218D01*
X19110938Y9307205D01*
X19110936Y9307209D01*
X19015940Y9497990D01*
X18887499Y9668071D01*
X18730000Y9811651D01*
X18729997Y9811654D01*
X18548798Y9923846D01*
X18548786Y9923852D01*
X18350068Y10000836D01*
X18350058Y10000839D01*
X18184000Y10031881D01*
X18184000Y9367446D01*
X18099826Y9390000D01*
X17968174Y9390000D01*
X17884000Y9367446D01*
X17884000Y10031881D01*
X17883999Y10031881D01*
X17717941Y10000839D01*
X17717931Y10000836D01*
X17519213Y9923852D01*
X17519201Y9923846D01*
X17338002Y9811654D01*
X17337999Y9811651D01*
X17180500Y9668071D01*
X17052059Y9497990D01*
X16957063Y9307209D01*
X16957061Y9307205D01*
X16898738Y9102218D01*
X16898737Y9102217D01*
X16892972Y9040001D01*
X14171027Y9040001D01*
X14165262Y9102217D01*
X14165261Y9102218D01*
X14106938Y9307205D01*
X14106936Y9307209D01*
X14011940Y9497990D01*
X13883499Y9668071D01*
X13726000Y9811651D01*
X13725997Y9811654D01*
X13544798Y9923846D01*
X13544786Y9923852D01*
X13346068Y10000836D01*
X13346058Y10000839D01*
X13180000Y10031881D01*
X13180000Y9367446D01*
X13095826Y9390000D01*
X12964174Y9390000D01*
X12880000Y9367446D01*
X12880000Y10031881D01*
X12879999Y10031881D01*
X12713941Y10000839D01*
X12713931Y10000836D01*
X12515213Y9923852D01*
X12515201Y9923846D01*
X12334002Y9811654D01*
X12333999Y9811651D01*
X12176500Y9668071D01*
X12048059Y9497990D01*
X11953063Y9307209D01*
X11953061Y9307205D01*
X11894738Y9102218D01*
X11894737Y9102217D01*
X11888972Y9040001D01*
X11631529Y9040001D01*
X11625756Y9102310D01*
X11598812Y9197007D01*
X11567405Y9307389D01*
X11472498Y9497990D01*
X11472367Y9498254D01*
X11429534Y9554973D01*
X11343872Y9668407D01*
X11186302Y9812052D01*
X11092117Y9870370D01*
X11048605Y9921796D01*
X11040500Y9963042D01*
X11040500Y13960001D01*
X25824571Y13960001D01*
X25824571Y13960000D01*
X25844243Y13747691D01*
X25902594Y13542613D01*
X25997632Y13351747D01*
X25997634Y13351745D01*
X26126128Y13181593D01*
X26283698Y13037948D01*
X26283700Y13037947D01*
X26464975Y12925706D01*
X26464977Y12925704D01*
X26464979Y12925704D01*
X26464981Y12925702D01*
X26663802Y12848679D01*
X26873390Y12809500D01*
X26873391Y12809500D01*
X27086609Y12809500D01*
X27086610Y12809500D01*
X27296198Y12848679D01*
X27495019Y12925702D01*
X27676302Y13037948D01*
X27833872Y13181593D01*
X27962366Y13351745D01*
X28057405Y13542611D01*
X28115756Y13747690D01*
X28135429Y13960000D01*
X28115756Y14172310D01*
X28057405Y14377389D01*
X28010082Y14472427D01*
X27962367Y14568254D01*
X27833870Y14738409D01*
X27676303Y14882051D01*
X27676299Y14882054D01*
X27495024Y14994295D01*
X27495022Y14994297D01*
X27296198Y15071321D01*
X27296194Y15071322D01*
X27086610Y15110500D01*
X26873390Y15110500D01*
X26873389Y15110500D01*
X26663805Y15071322D01*
X26663801Y15071321D01*
X26464977Y14994297D01*
X26464975Y14994295D01*
X26283700Y14882054D01*
X26283696Y14882051D01*
X26126129Y14738409D01*
X25997632Y14568254D01*
X25902594Y14377388D01*
X25844243Y14172310D01*
X25824571Y13960001D01*
X11040500Y13960001D01*
X11040500Y16500001D01*
X25824571Y16500001D01*
X25824571Y16500000D01*
X25844243Y16287691D01*
X25902594Y16082613D01*
X25997632Y15891747D01*
X25997634Y15891745D01*
X26126128Y15721593D01*
X26283698Y15577948D01*
X26283700Y15577947D01*
X26464975Y15465706D01*
X26464977Y15465704D01*
X26464979Y15465704D01*
X26464981Y15465702D01*
X26663802Y15388679D01*
X26873390Y15349500D01*
X26873391Y15349500D01*
X27086609Y15349500D01*
X27086610Y15349500D01*
X27296198Y15388679D01*
X27495019Y15465702D01*
X27676302Y15577948D01*
X27833872Y15721593D01*
X27962366Y15891745D01*
X28057405Y16082611D01*
X28115756Y16287690D01*
X28135429Y16500000D01*
X28115756Y16712310D01*
X28057405Y16917389D01*
X28010082Y17012427D01*
X27962367Y17108254D01*
X27833870Y17278409D01*
X27676303Y17422051D01*
X27676299Y17422054D01*
X27495024Y17534295D01*
X27495022Y17534297D01*
X27296198Y17611321D01*
X27296194Y17611322D01*
X27086610Y17650500D01*
X26873390Y17650500D01*
X26873389Y17650500D01*
X26663805Y17611322D01*
X26663801Y17611321D01*
X26464977Y17534297D01*
X26464975Y17534295D01*
X26283700Y17422054D01*
X26283696Y17422051D01*
X26126129Y17278409D01*
X25997632Y17108254D01*
X25902594Y16917388D01*
X25844243Y16712310D01*
X25824571Y16500001D01*
X11040500Y16500001D01*
X11040500Y19190001D01*
X25838972Y19190001D01*
X25838973Y19190000D01*
X26502555Y19190000D01*
X26480000Y19105826D01*
X26480000Y18974174D01*
X26502555Y18890000D01*
X25838973Y18890000D01*
X25844737Y18827784D01*
X25844738Y18827783D01*
X25903061Y18622796D01*
X25903063Y18622792D01*
X25998059Y18432011D01*
X26126500Y18261930D01*
X26283999Y18118350D01*
X26284002Y18118347D01*
X26465201Y18006155D01*
X26465213Y18006149D01*
X26663929Y17929166D01*
X26663942Y17929162D01*
X26830000Y17898121D01*
X26830000Y18562555D01*
X26914174Y18540000D01*
X27045826Y18540000D01*
X27130000Y18562555D01*
X27130000Y17898122D01*
X27296057Y17929162D01*
X27296070Y17929166D01*
X27494786Y18006149D01*
X27494798Y18006155D01*
X27675997Y18118347D01*
X27676000Y18118350D01*
X27833499Y18261930D01*
X27961940Y18432011D01*
X28056936Y18622792D01*
X28056938Y18622796D01*
X28115261Y18827783D01*
X28115262Y18827784D01*
X28121027Y18890000D01*
X27457445Y18890000D01*
X27480000Y18974174D01*
X27480000Y19105826D01*
X27457445Y19190000D01*
X28121027Y19190000D01*
X28121027Y19190001D01*
X28115262Y19252217D01*
X28115261Y19252218D01*
X28056938Y19457205D01*
X28056936Y19457209D01*
X27961940Y19647990D01*
X27833499Y19818071D01*
X27676000Y19961651D01*
X27675997Y19961654D01*
X27494798Y20073846D01*
X27494786Y20073852D01*
X27296068Y20150836D01*
X27296058Y20150839D01*
X27130000Y20181881D01*
X27130000Y19517446D01*
X27045826Y19540000D01*
X26914174Y19540000D01*
X26830000Y19517446D01*
X26830000Y20181881D01*
X26829999Y20181881D01*
X26663941Y20150839D01*
X26663931Y20150836D01*
X26465213Y20073852D01*
X26465201Y20073846D01*
X26284002Y19961654D01*
X26283999Y19961651D01*
X26126500Y19818071D01*
X25998059Y19647990D01*
X25903063Y19457209D01*
X25903061Y19457205D01*
X25844738Y19252218D01*
X25844737Y19252217D01*
X25838972Y19190001D01*
X11040500Y19190001D01*
X11040500Y21580001D01*
X25824571Y21580001D01*
X25824571Y21580000D01*
X25844243Y21367691D01*
X25902594Y21162613D01*
X25997632Y20971747D01*
X25997634Y20971745D01*
X26126128Y20801593D01*
X26283698Y20657948D01*
X26283700Y20657947D01*
X26464975Y20545706D01*
X26464977Y20545704D01*
X26464979Y20545704D01*
X26464981Y20545702D01*
X26663802Y20468679D01*
X26873390Y20429500D01*
X26873391Y20429500D01*
X27086609Y20429500D01*
X27086610Y20429500D01*
X27296198Y20468679D01*
X27495019Y20545702D01*
X27676302Y20657948D01*
X27833872Y20801593D01*
X27962366Y20971745D01*
X28057405Y21162611D01*
X28115756Y21367690D01*
X28135429Y21580000D01*
X28115756Y21792310D01*
X28057405Y21997389D01*
X28010082Y22092427D01*
X27962367Y22188254D01*
X27833870Y22358409D01*
X27676303Y22502051D01*
X27676299Y22502054D01*
X27495024Y22614295D01*
X27495022Y22614297D01*
X27296198Y22691321D01*
X27296194Y22691322D01*
X27086610Y22730500D01*
X26873390Y22730500D01*
X26873389Y22730500D01*
X26663805Y22691322D01*
X26663801Y22691321D01*
X26464977Y22614297D01*
X26464975Y22614295D01*
X26283700Y22502054D01*
X26283696Y22502051D01*
X26126129Y22358409D01*
X25997632Y22188254D01*
X25902594Y21997388D01*
X25844243Y21792310D01*
X25824571Y21580001D01*
X11040500Y21580001D01*
X11040500Y23161273D01*
X11040499Y23161277D01*
X11002984Y23301285D01*
X10979712Y23341593D01*
X10930510Y23426815D01*
X10237324Y24120001D01*
X25824571Y24120001D01*
X25824571Y24120000D01*
X25844243Y23907691D01*
X25902594Y23702613D01*
X25997632Y23511747D01*
X26125874Y23341930D01*
X26126128Y23341593D01*
X26283698Y23197948D01*
X26464259Y23086149D01*
X26464975Y23085706D01*
X26464977Y23085704D01*
X26464979Y23085704D01*
X26464981Y23085702D01*
X26663802Y23008679D01*
X26873390Y22969500D01*
X26873391Y22969500D01*
X27086609Y22969500D01*
X27086610Y22969500D01*
X27296198Y23008679D01*
X27495019Y23085702D01*
X27676302Y23197948D01*
X27833872Y23341593D01*
X27962366Y23511745D01*
X28057405Y23702611D01*
X28115756Y23907690D01*
X28135429Y24120000D01*
X28129329Y24185826D01*
X28115756Y24332310D01*
X28088812Y24427007D01*
X28057405Y24537389D01*
X27962498Y24727990D01*
X27962367Y24728254D01*
X27919534Y24784973D01*
X27833872Y24898407D01*
X27676302Y25042052D01*
X27495024Y25154295D01*
X27495022Y25154297D01*
X27296198Y25231321D01*
X27296194Y25231322D01*
X27086610Y25270500D01*
X26873390Y25270500D01*
X26873389Y25270500D01*
X26663805Y25231322D01*
X26663801Y25231321D01*
X26464977Y25154297D01*
X26464975Y25154295D01*
X26283700Y25042054D01*
X26283696Y25042051D01*
X26126129Y24898409D01*
X25997632Y24728254D01*
X25902594Y24537388D01*
X25844243Y24332310D01*
X25824571Y24120001D01*
X10237324Y24120001D01*
X7697324Y26660001D01*
X25824571Y26660001D01*
X25824571Y26660000D01*
X25844243Y26447691D01*
X25902594Y26242613D01*
X25997632Y26051747D01*
X25997634Y26051745D01*
X26126128Y25881593D01*
X26283698Y25737948D01*
X26283700Y25737947D01*
X26464975Y25625706D01*
X26464977Y25625704D01*
X26464979Y25625704D01*
X26464981Y25625702D01*
X26663802Y25548679D01*
X26873390Y25509500D01*
X26873391Y25509500D01*
X27086609Y25509500D01*
X27086610Y25509500D01*
X27296198Y25548679D01*
X27495019Y25625702D01*
X27676302Y25737948D01*
X27833872Y25881593D01*
X27962366Y26051745D01*
X28057405Y26242611D01*
X28115756Y26447690D01*
X28135429Y26660000D01*
X28115756Y26872310D01*
X28057405Y27077389D01*
X27964499Y27263972D01*
X27962367Y27268254D01*
X27833870Y27438409D01*
X27676303Y27582051D01*
X27676299Y27582054D01*
X27495024Y27694295D01*
X27495022Y27694297D01*
X27296198Y27771321D01*
X27296194Y27771322D01*
X27086610Y27810500D01*
X26873390Y27810500D01*
X26873389Y27810500D01*
X26663805Y27771322D01*
X26663801Y27771321D01*
X26464977Y27694297D01*
X26464975Y27694295D01*
X26283700Y27582054D01*
X26283696Y27582051D01*
X26126129Y27438409D01*
X25997632Y27268254D01*
X25902594Y27077388D01*
X25844243Y26872310D01*
X25824571Y26660001D01*
X7697324Y26660001D01*
X7256815Y27100510D01*
X7131285Y27172984D01*
X6991276Y27210500D01*
X6991275Y27210500D01*
X5193415Y27210500D01*
X5129346Y27231317D01*
X5101061Y27264742D01*
X5099818Y27263972D01*
X5097168Y27268252D01*
X4968670Y27438409D01*
X4811103Y27582051D01*
X4811099Y27582054D01*
X4629824Y27694295D01*
X4629822Y27694297D01*
X4430998Y27771321D01*
X4430994Y27771322D01*
X4221410Y27810500D01*
X4008190Y27810500D01*
X4008189Y27810500D01*
X3798605Y27771322D01*
X3798601Y27771321D01*
X3599777Y27694297D01*
X3599775Y27694295D01*
X3418500Y27582054D01*
X3418496Y27582051D01*
X3260929Y27438409D01*
X3132432Y27268254D01*
X3037394Y27077388D01*
X2979043Y26872310D01*
X2959371Y26660001D01*
X313323Y26660001D01*
X313323Y36576004D01*
X12856318Y36576004D01*
X12856318Y36575997D01*
X12876955Y36419241D01*
X12937465Y36273157D01*
X13033713Y36147724D01*
X13033718Y36147718D01*
X13159159Y36051464D01*
X13305238Y35990956D01*
X13357492Y35984077D01*
X13461996Y35970318D01*
X13462000Y35970318D01*
X13462004Y35970318D01*
X13551578Y35982112D01*
X13618762Y35990956D01*
X13764841Y36051464D01*
X13831973Y36102977D01*
X13895475Y36125463D01*
X13898328Y36125500D01*
X23465072Y36125500D01*
X23529141Y36104683D01*
X23531425Y36102977D01*
X23598559Y36051464D01*
X23744638Y35990956D01*
X23796892Y35984077D01*
X23901396Y35970318D01*
X23901400Y35970318D01*
X23901404Y35970318D01*
X23990978Y35982112D01*
X24058162Y35990956D01*
X24204241Y36051464D01*
X24329682Y36147718D01*
X24425936Y36273159D01*
X24486444Y36419238D01*
X24507082Y36576000D01*
X24507082Y36576004D01*
X24486444Y36732760D01*
X24486444Y36732762D01*
X24425936Y36878841D01*
X24329682Y37004282D01*
X24329677Y37004286D01*
X24329676Y37004287D01*
X24204243Y37100535D01*
X24204241Y37100536D01*
X24058162Y37161044D01*
X24058161Y37161045D01*
X24058159Y37161045D01*
X23901404Y37181682D01*
X23901396Y37181682D01*
X23744640Y37161045D01*
X23598558Y37100536D01*
X23531427Y37049024D01*
X23467925Y37026537D01*
X23465072Y37026500D01*
X13898328Y37026500D01*
X13834259Y37047317D01*
X13831973Y37049024D01*
X13764841Y37100536D01*
X13618762Y37161044D01*
X13618761Y37161045D01*
X13618759Y37161045D01*
X13462004Y37181682D01*
X13461996Y37181682D01*
X13305240Y37161045D01*
X13159156Y37100535D01*
X13033723Y37004287D01*
X13033713Y37004277D01*
X12937465Y36878844D01*
X12876955Y36732760D01*
X12856318Y36576004D01*
X313323Y36576004D01*
X313323Y41148004D01*
X12856318Y41148004D01*
X12856318Y41147997D01*
X12876955Y40991241D01*
X12876955Y40991239D01*
X12876956Y40991238D01*
X12937464Y40845159D01*
X12937465Y40845157D01*
X13033713Y40719724D01*
X13033718Y40719718D01*
X13159159Y40623464D01*
X13305238Y40562956D01*
X13357492Y40556077D01*
X13461996Y40542318D01*
X13462000Y40542318D01*
X13462004Y40542318D01*
X13551578Y40554112D01*
X13618762Y40562956D01*
X13764841Y40623464D01*
X13890282Y40719718D01*
X13986536Y40845159D01*
X14047044Y40991238D01*
X14058088Y41075134D01*
X14087090Y41135935D01*
X14089044Y41137943D01*
X15582188Y42631087D01*
X15642210Y42661668D01*
X15700971Y42654714D01*
X15845238Y42594956D01*
X15897492Y42588077D01*
X16001996Y42574318D01*
X16002000Y42574318D01*
X16002004Y42574318D01*
X16091578Y42586112D01*
X16158762Y42594956D01*
X16304841Y42655464D01*
X16430282Y42751718D01*
X16526536Y42877159D01*
X16587044Y43023238D01*
X16607682Y43180000D01*
X16607682Y43180004D01*
X16587044Y43336760D01*
X16587044Y43336762D01*
X16526536Y43482841D01*
X16482300Y43540490D01*
X16430286Y43608277D01*
X16430285Y43608278D01*
X16430282Y43608282D01*
X16430277Y43608286D01*
X16430276Y43608287D01*
X16304843Y43704535D01*
X16304841Y43704536D01*
X16158762Y43765044D01*
X16158761Y43765045D01*
X16158759Y43765045D01*
X16002004Y43785682D01*
X16001996Y43785682D01*
X15845240Y43765045D01*
X15699158Y43704536D01*
X15632027Y43653024D01*
X15568525Y43630537D01*
X15565672Y43630500D01*
X15434689Y43630500D01*
X15379412Y43615688D01*
X15351773Y43608282D01*
X15351772Y43608282D01*
X15320113Y43599800D01*
X15320112Y43599800D01*
X15217387Y43540490D01*
X13451977Y41775082D01*
X13391953Y41744499D01*
X13389130Y41744090D01*
X13305243Y41733046D01*
X13305238Y41733045D01*
X13159156Y41672535D01*
X13033723Y41576287D01*
X13033713Y41576277D01*
X12937465Y41450844D01*
X12876955Y41304760D01*
X12856318Y41148004D01*
X313323Y41148004D01*
X313323Y49522121D01*
X313332Y49523522D01*
X314610Y49622891D01*
X315825Y49717365D01*
X316411Y49727329D01*
X357010Y50113590D01*
X358790Y50124822D01*
X392180Y50281904D01*
X1990885Y50281904D01*
X1990885Y50033742D01*
X2024016Y49835201D01*
X2031731Y49788965D01*
X2031731Y49788961D01*
X2107885Y49567132D01*
X2112309Y49554247D01*
X2129315Y49522823D01*
X2230422Y49335992D01*
X2382846Y49140160D01*
X2382851Y49140154D01*
X2565424Y48972084D01*
X2750508Y48851163D01*
X2773178Y48836352D01*
X3000439Y48736666D01*
X3241008Y48675746D01*
X3488323Y48655252D01*
X3735638Y48675746D01*
X3976207Y48736666D01*
X4203468Y48836352D01*
X4411221Y48972084D01*
X4593794Y49140154D01*
X4593795Y49140157D01*
X4593800Y49140160D01*
X4746225Y49335995D01*
X4864337Y49554247D01*
X4944915Y49788964D01*
X4952631Y49835201D01*
X11422971Y49835201D01*
X11422971Y49835200D01*
X11442643Y49622891D01*
X11500994Y49417813D01*
X11596032Y49226947D01*
X11661574Y49140157D01*
X11724528Y49056793D01*
X11882098Y48913148D01*
X12020732Y48827309D01*
X12063375Y48800906D01*
X12063377Y48800904D01*
X12063379Y48800904D01*
X12063381Y48800902D01*
X12262202Y48723879D01*
X12471790Y48684700D01*
X12471791Y48684700D01*
X12685009Y48684700D01*
X12685010Y48684700D01*
X12894598Y48723879D01*
X13093419Y48800902D01*
X13274702Y48913148D01*
X13432272Y49056793D01*
X13560766Y49226945D01*
X13655805Y49417811D01*
X13714156Y49622890D01*
X13733829Y49835200D01*
X13714156Y50047510D01*
X13655805Y50252589D01*
X13597818Y50369044D01*
X13560767Y50443454D01*
X13432270Y50613609D01*
X13304526Y50730064D01*
X13304524Y50730066D01*
X13967900Y50730066D01*
X13967900Y48940342D01*
X13967902Y48940322D01*
X13970814Y48915212D01*
X13970814Y48915210D01*
X13970815Y48915209D01*
X14016194Y48812435D01*
X14095635Y48732994D01*
X14198409Y48687615D01*
X14223535Y48684700D01*
X16013264Y48684701D01*
X16038391Y48687615D01*
X16141165Y48732994D01*
X16220606Y48812435D01*
X16265985Y48915209D01*
X16268900Y48940335D01*
X16268900Y49784004D01*
X18698318Y49784004D01*
X18698318Y49783997D01*
X18718955Y49627241D01*
X18779465Y49481157D01*
X18828072Y49417811D01*
X18875718Y49355718D01*
X18875722Y49355715D01*
X18875723Y49355714D01*
X18901421Y49335995D01*
X19001159Y49259464D01*
X19147238Y49198956D01*
X19231131Y49187912D01*
X19291934Y49158910D01*
X19293978Y49156919D01*
X19837575Y48613322D01*
X19868158Y48553298D01*
X19869500Y48536247D01*
X19869500Y40568328D01*
X19848683Y40504259D01*
X19846976Y40501973D01*
X19795464Y40434842D01*
X19734955Y40288760D01*
X19714318Y40132004D01*
X19714318Y40131997D01*
X19734955Y39975241D01*
X19795465Y39829157D01*
X19891713Y39703724D01*
X19891718Y39703718D01*
X20017159Y39607464D01*
X20163238Y39546956D01*
X20215492Y39540077D01*
X20319996Y39526318D01*
X20320000Y39526318D01*
X20320004Y39526318D01*
X20409578Y39538112D01*
X20476762Y39546956D01*
X20622841Y39607464D01*
X20748282Y39703718D01*
X20844536Y39829159D01*
X20905044Y39975238D01*
X20925682Y40132000D01*
X20925682Y40132004D01*
X20905044Y40288760D01*
X20905044Y40288762D01*
X20844536Y40434841D01*
X20793023Y40501974D01*
X20770537Y40565475D01*
X20770500Y40568328D01*
X20770500Y48827309D01*
X20740214Y48940340D01*
X20740214Y48940341D01*
X20739800Y48941883D01*
X20739799Y48941887D01*
X20680489Y49044614D01*
X19931081Y49794022D01*
X19900498Y49854046D01*
X19900088Y49856870D01*
X19889044Y49940760D01*
X19889044Y49940762D01*
X19828536Y50086841D01*
X19808029Y50113566D01*
X19732286Y50212277D01*
X19732285Y50212278D01*
X19732282Y50212282D01*
X19732277Y50212286D01*
X19732276Y50212287D01*
X19641549Y50281904D01*
X26120885Y50281904D01*
X26120885Y50033742D01*
X26154016Y49835201D01*
X26161731Y49788965D01*
X26161731Y49788961D01*
X26237885Y49567132D01*
X26242309Y49554247D01*
X26259315Y49522823D01*
X26360422Y49335992D01*
X26512846Y49140160D01*
X26512851Y49140154D01*
X26695424Y48972084D01*
X26880508Y48851163D01*
X26903178Y48836352D01*
X27130439Y48736666D01*
X27371008Y48675746D01*
X27618323Y48655252D01*
X27865638Y48675746D01*
X28106207Y48736666D01*
X28333468Y48836352D01*
X28541221Y48972084D01*
X28723794Y49140154D01*
X28723795Y49140157D01*
X28723800Y49140160D01*
X28876225Y49335995D01*
X28994337Y49554247D01*
X29074915Y49788964D01*
X29115761Y50033742D01*
X29118323Y50157823D01*
X29115761Y50281904D01*
X29074915Y50526682D01*
X28994337Y50761399D01*
X28876225Y50979651D01*
X28876223Y50979655D01*
X28723799Y51175487D01*
X28723794Y51175493D01*
X28541221Y51343563D01*
X28333473Y51479291D01*
X28333471Y51479292D01*
X28333468Y51479294D01*
X28106207Y51578980D01*
X27865638Y51639900D01*
X27618323Y51660393D01*
X27371008Y51639900D01*
X27250723Y51609440D01*
X27130438Y51578980D01*
X27130436Y51578979D01*
X26903178Y51479294D01*
X26903172Y51479291D01*
X26695424Y51343563D01*
X26512851Y51175493D01*
X26512846Y51175487D01*
X26360422Y50979655D01*
X26242309Y50761399D01*
X26242307Y50761394D01*
X26161731Y50526686D01*
X26161731Y50526682D01*
X26120885Y50281904D01*
X19641549Y50281904D01*
X19606843Y50308535D01*
X19606841Y50308536D01*
X19460762Y50369044D01*
X19460761Y50369045D01*
X19460759Y50369045D01*
X19304004Y50389682D01*
X19303996Y50389682D01*
X19147240Y50369045D01*
X19001156Y50308535D01*
X18875723Y50212287D01*
X18875713Y50212277D01*
X18779465Y50086844D01*
X18718955Y49940760D01*
X18698318Y49784004D01*
X16268900Y49784004D01*
X16268899Y50730064D01*
X16265985Y50755191D01*
X16220606Y50857965D01*
X16141165Y50937406D01*
X16038391Y50982785D01*
X16013265Y50985700D01*
X16013264Y50985700D01*
X14223541Y50985700D01*
X14223520Y50985698D01*
X14198411Y50982786D01*
X14095634Y50937406D01*
X14016194Y50857966D01*
X13970815Y50755191D01*
X13967900Y50730066D01*
X13304524Y50730066D01*
X13274702Y50757252D01*
X13268012Y50761394D01*
X13093424Y50869495D01*
X13093422Y50869497D01*
X12894598Y50946521D01*
X12894594Y50946522D01*
X12685010Y50985700D01*
X12471790Y50985700D01*
X12471789Y50985700D01*
X12262205Y50946522D01*
X12262201Y50946521D01*
X12063377Y50869497D01*
X12063375Y50869495D01*
X11882100Y50757254D01*
X11882096Y50757251D01*
X11724529Y50613609D01*
X11596032Y50443454D01*
X11500994Y50252588D01*
X11442643Y50047510D01*
X11422971Y49835201D01*
X4952631Y49835201D01*
X4985761Y50033742D01*
X4988323Y50157823D01*
X4985761Y50281904D01*
X4944915Y50526682D01*
X4864337Y50761399D01*
X4746225Y50979651D01*
X4746223Y50979655D01*
X4593799Y51175487D01*
X4593794Y51175493D01*
X4411221Y51343563D01*
X4203473Y51479291D01*
X4203471Y51479292D01*
X4203468Y51479294D01*
X3976207Y51578980D01*
X3735638Y51639900D01*
X3488323Y51660393D01*
X3241008Y51639900D01*
X3120723Y51609440D01*
X3000438Y51578980D01*
X3000436Y51578979D01*
X2773178Y51479294D01*
X2773172Y51479291D01*
X2565424Y51343563D01*
X2382851Y51175493D01*
X2382846Y51175487D01*
X2230422Y50979655D01*
X2112309Y50761399D01*
X2112307Y50761394D01*
X2031731Y50526686D01*
X2031731Y50526682D01*
X1990885Y50281904D01*
X392180Y50281904D01*
X439396Y50504034D01*
X442344Y50515032D01*
X562146Y50883737D01*
X566222Y50894355D01*
X723908Y51248516D01*
X729076Y51258659D01*
X922915Y51594395D01*
X929120Y51603948D01*
X1156983Y51917569D01*
X1164150Y51926421D01*
X1423567Y52214531D01*
X1431610Y52222573D01*
X1719705Y52481972D01*
X1728570Y52489149D01*
X2042199Y52717011D01*
X2051742Y52723209D01*
X2387474Y52917041D01*
X2397623Y52922213D01*
X2751790Y53079896D01*
X2762425Y53083977D01*
X3131124Y53203772D01*
X3142107Y53206715D01*
X3521306Y53287313D01*
X3532571Y53289098D01*
X3918827Y53329693D01*
X3928763Y53330280D01*
X4122635Y53332814D01*
X4124060Y53332823D01*
X26982584Y53332823D01*
X26984010Y53332814D01*
G37*
%TD.AperFunction*%
%TD*%
M02*
