%TF.GenerationSoftware,KiCad,Pcbnew,8.0.6*%
%TF.CreationDate,2025-10-11T08:40:00-07:00*%
%TF.ProjectId,cnft-tpl-esp32cam,636e6674-2d74-4706-9c2d-657370333263,rev?*%
%TF.SameCoordinates,Original*%
%TF.FileFunction,Copper,L1,Top*%
%TF.FilePolarity,Positive*%
%FSLAX46Y46*%
G04 Gerber Fmt 4.6, Leading zero omitted, Abs format (unit mm)*
G04 Created by KiCad (PCBNEW 8.0.6) date 2025-10-11 08:40:00*
%MOMM*%
%LPD*%
G01*
G04 APERTURE LIST*
G04 Aperture macros list*
%AMRoundRect*
0 Rectangle with rounded corners*
0 $1 Rounding radius*
0 $2 $3 $4 $5 $6 $7 $8 $9 X,Y pos of 4 corners*
0 Add a 4 corners polygon primitive as box body*
4,1,4,$2,$3,$4,$5,$6,$7,$8,$9,$2,$3,0*
0 Add four circle primitives for the rounded corners*
1,1,$1+$1,$2,$3*
1,1,$1+$1,$4,$5*
1,1,$1+$1,$6,$7*
1,1,$1+$1,$8,$9*
0 Add four rect primitives between the rounded corners*
20,1,$1+$1,$2,$3,$4,$5,0*
20,1,$1+$1,$4,$5,$6,$7,0*
20,1,$1+$1,$6,$7,$8,$9,0*
20,1,$1+$1,$8,$9,$2,$3,0*%
%AMFreePoly0*
4,1,19,0.500000,-0.750000,0.000000,-0.750000,0.000000,-0.744911,-0.071157,-0.744911,-0.207708,-0.704816,-0.327430,-0.627875,-0.420627,-0.520320,-0.479746,-0.390866,-0.500000,-0.250000,-0.500000,0.250000,-0.479746,0.390866,-0.420627,0.520320,-0.327430,0.627875,-0.207708,0.704816,-0.071157,0.744911,0.000000,0.744911,0.000000,0.750000,0.500000,0.750000,0.500000,-0.750000,0.500000,-0.750000,
$1*%
%AMFreePoly1*
4,1,19,0.000000,0.744911,0.071157,0.744911,0.207708,0.704816,0.327430,0.627875,0.420627,0.520320,0.479746,0.390866,0.500000,0.250000,0.500000,-0.250000,0.479746,-0.390866,0.420627,-0.520320,0.327430,-0.627875,0.207708,-0.704816,0.071157,-0.744911,0.000000,-0.744911,0.000000,-0.750000,-0.500000,-0.750000,-0.500000,0.750000,0.000000,0.750000,0.000000,0.744911,0.000000,0.744911,
$1*%
G04 Aperture macros list end*
%TA.AperFunction,EtchedComponent*%
%ADD10C,0.000000*%
%TD*%
%TA.AperFunction,SMDPad,CuDef*%
%ADD11RoundRect,0.250000X0.750000X-0.400000X0.750000X0.400000X-0.750000X0.400000X-0.750000X-0.400000X0*%
%TD*%
%TA.AperFunction,SMDPad,CuDef*%
%ADD12RoundRect,0.250000X0.750000X-0.750000X0.750000X0.750000X-0.750000X0.750000X-0.750000X-0.750000X0*%
%TD*%
%TA.AperFunction,ComponentPad*%
%ADD13R,1.700000X1.700000*%
%TD*%
%TA.AperFunction,ComponentPad*%
%ADD14O,1.700000X1.700000*%
%TD*%
%TA.AperFunction,SMDPad,CuDef*%
%ADD15RoundRect,0.150000X-0.150000X0.587500X-0.150000X-0.587500X0.150000X-0.587500X0.150000X0.587500X0*%
%TD*%
%TA.AperFunction,SMDPad,CuDef*%
%ADD16RoundRect,0.250000X-0.475000X0.250000X-0.475000X-0.250000X0.475000X-0.250000X0.475000X0.250000X0*%
%TD*%
%TA.AperFunction,SMDPad,CuDef*%
%ADD17RoundRect,0.150000X0.150000X-0.512500X0.150000X0.512500X-0.150000X0.512500X-0.150000X-0.512500X0*%
%TD*%
%TA.AperFunction,SMDPad,CuDef*%
%ADD18RoundRect,0.250000X2.500000X-0.250000X2.500000X0.250000X-2.500000X0.250000X-2.500000X-0.250000X0*%
%TD*%
%TA.AperFunction,SMDPad,CuDef*%
%ADD19RoundRect,0.250000X1.250000X-0.550000X1.250000X0.550000X-1.250000X0.550000X-1.250000X-0.550000X0*%
%TD*%
%TA.AperFunction,SMDPad,CuDef*%
%ADD20RoundRect,0.250000X-0.262500X-0.450000X0.262500X-0.450000X0.262500X0.450000X-0.262500X0.450000X0*%
%TD*%
%TA.AperFunction,SMDPad,CuDef*%
%ADD21FreePoly0,90.000000*%
%TD*%
%TA.AperFunction,SMDPad,CuDef*%
%ADD22FreePoly1,90.000000*%
%TD*%
%TA.AperFunction,SMDPad,CuDef*%
%ADD23RoundRect,0.250000X0.262500X0.450000X-0.262500X0.450000X-0.262500X-0.450000X0.262500X-0.450000X0*%
%TD*%
%TA.AperFunction,SMDPad,CuDef*%
%ADD24RoundRect,0.250000X-0.550000X1.250000X-0.550000X-1.250000X0.550000X-1.250000X0.550000X1.250000X0*%
%TD*%
%TA.AperFunction,SMDPad,CuDef*%
%ADD25RoundRect,0.218750X-0.218750X-0.256250X0.218750X-0.256250X0.218750X0.256250X-0.218750X0.256250X0*%
%TD*%
%TA.AperFunction,ViaPad*%
%ADD26C,0.600000*%
%TD*%
%TA.AperFunction,Conductor*%
%ADD27C,0.300000*%
%TD*%
%TA.AperFunction,Conductor*%
%ADD28C,0.500000*%
%TD*%
%TA.AperFunction,Conductor*%
%ADD29C,0.250000*%
%TD*%
%TA.AperFunction,Conductor*%
%ADD30C,0.400000*%
%TD*%
G04 APERTURE END LIST*
D10*
%TA.AperFunction,EtchedComponent*%
%TO.C,JP2*%
G36*
X11323600Y33024000D02*
G01*
X10723600Y33024000D01*
X10723600Y33524000D01*
X11323600Y33524000D01*
X11323600Y33024000D01*
G37*
%TD.AperFunction*%
%TD*%
D11*
%TO.P,RV1,1,1*%
%TO.N,unconnected-(RV1-Pad1)*%
X2191000Y31412800D03*
D12*
%TO.P,RV1,2,2*%
%TO.N,Net-(JP2-A)*%
X6191000Y32562800D03*
D11*
%TO.P,RV1,3,3*%
%TO.N,GND*%
X2191000Y33712800D03*
%TD*%
D13*
%TO.P,SW1,1,1*%
%TO.N,Net-(JP2-B)*%
X15118400Y49835200D03*
D14*
%TO.P,SW1,2,2*%
%TO.N,VDD*%
X12578400Y49835200D03*
%TD*%
D15*
%TO.P,U2,1,G*%
%TO.N,Net-(U1-DRV)*%
X13208000Y38608000D03*
%TO.P,U2,2,S*%
%TO.N,VDD*%
X11308000Y38608000D03*
%TO.P,U2,3,D*%
%TO.N,PWOUT*%
X12258000Y36733000D03*
%TD*%
D13*
%TO.P,J2,1,Pin_1*%
%TO.N,unconnected-(J2-Pin_1-Pad1)*%
X4114800Y8880000D03*
D14*
%TO.P,J2,2,Pin_2*%
%TO.N,unconnected-(J2-Pin_2-Pad2)*%
X4114800Y11420000D03*
%TO.P,J2,3,Pin_3*%
%TO.N,unconnected-(J2-Pin_3-Pad3)*%
X4114800Y13960000D03*
%TO.P,J2,4,Pin_4*%
%TO.N,unconnected-(J2-Pin_4-Pad4)*%
X4114800Y16500000D03*
%TO.P,J2,5,Pin_5*%
%TO.N,unconnected-(J2-Pin_5-Pad5)*%
X4114800Y19040000D03*
%TO.P,J2,6,Pin_6*%
%TO.N,DONE*%
X4114800Y21580000D03*
%TO.P,J2,7,Pin_7*%
%TO.N,GND*%
X4114800Y24120000D03*
%TO.P,J2,8,Pin_8*%
%TO.N,PWOUT*%
X4114800Y26660000D03*
%TD*%
D16*
%TO.P,C1,1*%
%TO.N,VDD*%
X15240000Y38275000D03*
%TO.P,C1,2*%
%TO.N,GND*%
X15240000Y36375000D03*
%TD*%
D17*
%TO.P,U1,1,VDD*%
%TO.N,VDD*%
X17084000Y39776400D03*
%TO.P,U1,2,GND*%
%TO.N,GND*%
X18034000Y39776400D03*
%TO.P,U1,3,DELAY/M_DRV*%
%TO.N,Net-(JP2-B)*%
X18984000Y39776400D03*
%TO.P,U1,4,DONE*%
%TO.N,DONE*%
X18984000Y42051400D03*
%TO.P,U1,5,DRV*%
%TO.N,Net-(U1-DRV)*%
X18034000Y42051400D03*
%TO.P,U1,6,EN/ONE_SHOT*%
%TO.N,VDD*%
X17084000Y42051400D03*
%TD*%
D18*
%TO.P,J3,1,Pin_1*%
%TO.N,VDD*%
X5547400Y40031500D03*
%TO.P,J3,2,Pin_2*%
%TO.N,GND*%
X5547400Y42031500D03*
D19*
%TO.P,J3,MP*%
%TO.N,N/C*%
X3297400Y37631500D03*
X3297400Y44431500D03*
%TD*%
D20*
%TO.P,R2,1*%
%TO.N,Net-(D1-K)*%
X25440500Y29743400D03*
%TO.P,R2,2*%
%TO.N,GND*%
X27265500Y29743400D03*
%TD*%
D21*
%TO.P,JP2,1,A*%
%TO.N,Net-(JP2-A)*%
X11023600Y32624000D03*
D22*
%TO.P,JP2,2,B*%
%TO.N,Net-(JP2-B)*%
X11023600Y33924000D03*
%TD*%
D13*
%TO.P,J5,1,Pin_1*%
%TO.N,GPIO3*%
X7950000Y8890000D03*
D14*
%TO.P,J5,2,Pin_2*%
%TO.N,PWOUT*%
X10490000Y8890000D03*
%TO.P,J5,3,Pin_3*%
%TO.N,GND*%
X13030000Y8890000D03*
%TD*%
D23*
%TO.P,R1,1*%
%TO.N,DONE*%
X19137500Y44373800D03*
%TO.P,R1,2*%
%TO.N,GND*%
X17312500Y44373800D03*
%TD*%
D21*
%TO.P,JP1,1,A*%
%TO.N,Net-(D1-A)*%
X28702000Y34986200D03*
D22*
%TO.P,JP1,2,B*%
%TO.N,PWOUT*%
X28702000Y36286200D03*
%TD*%
D24*
%TO.P,C2,1*%
%TO.N,DONE*%
X26390600Y43719200D03*
%TO.P,C2,2*%
%TO.N,GND*%
X26390600Y39319200D03*
%TD*%
D25*
%TO.P,D1,1,K*%
%TO.N,Net-(D1-K)*%
X25603000Y31750000D03*
%TO.P,D1,2,A*%
%TO.N,Net-(D1-A)*%
X27178000Y31750000D03*
%TD*%
D13*
%TO.P,J1,1,Pin_1*%
%TO.N,unconnected-(J1-Pin_1-Pad1)*%
X26980000Y8880000D03*
D14*
%TO.P,J1,2,Pin_2*%
%TO.N,GPIO1*%
X26980000Y11420000D03*
%TO.P,J1,3,Pin_3*%
%TO.N,GPIO3*%
X26980000Y13960000D03*
%TO.P,J1,4,Pin_4*%
%TO.N,unconnected-(J1-Pin_4-Pad4)*%
X26980000Y16500000D03*
%TO.P,J1,5,Pin_5*%
%TO.N,GND*%
X26980000Y19040000D03*
%TO.P,J1,6,Pin_6*%
%TO.N,unconnected-(J1-Pin_6-Pad6)*%
X26980000Y21580000D03*
%TO.P,J1,7,Pin_7*%
%TO.N,unconnected-(J1-Pin_7-Pad7)*%
X26980000Y24120000D03*
%TO.P,J1,8,Pin_8*%
%TO.N,unconnected-(J1-Pin_8-Pad8)*%
X26980000Y26660000D03*
%TD*%
D13*
%TO.P,J4,1,Pin_1*%
%TO.N,GPIO1*%
X23114000Y8890000D03*
D14*
%TO.P,J4,2,Pin_2*%
%TO.N,PWOUT*%
X20574000Y8890000D03*
%TO.P,J4,3,Pin_3*%
%TO.N,GND*%
X18034000Y8890000D03*
%TD*%
D26*
%TO.N,GND*%
X17018000Y37846000D03*
X12192000Y40132000D03*
X13462000Y35306000D03*
X7620000Y34798000D03*
%TO.N,PWOUT*%
X13462000Y36576000D03*
X23901400Y36576000D03*
%TO.N,Net-(JP2-B)*%
X19304000Y49784000D03*
X20320000Y40132000D03*
%TO.N,Net-(U1-DRV)*%
X13462000Y41148000D03*
X16002000Y43180000D03*
%TD*%
D27*
%TO.N,Net-(JP2-A)*%
X11023600Y32624000D02*
X6252200Y32624000D01*
X6252200Y32624000D02*
X6191000Y32562800D01*
%TO.N,VDD*%
X12776200Y42051400D02*
X12725400Y42102200D01*
D28*
X5547400Y40031500D02*
X10172100Y40031500D01*
D27*
X15900400Y39776400D02*
X15240000Y39116000D01*
D28*
X12776200Y42051400D02*
X12587400Y42051400D01*
X11308000Y38608000D02*
X11308000Y39568200D01*
X10844700Y40031500D02*
X10172100Y40031500D01*
X12578400Y42427000D02*
X12578400Y49835200D01*
X17084000Y42051400D02*
X12954000Y42051400D01*
D27*
X17084000Y39776400D02*
X15900400Y39776400D01*
X17084000Y39776400D02*
X17084000Y42051400D01*
D28*
X12587400Y42051400D02*
X10567500Y40031500D01*
X12954000Y42051400D02*
X12776200Y42051400D01*
X12954000Y42051400D02*
X12578400Y42427000D01*
X10567500Y40031500D02*
X10172100Y40031500D01*
X11308000Y39568200D02*
X10844700Y40031500D01*
D27*
X16992000Y39684400D02*
X17084000Y39776400D01*
X15240000Y39116000D02*
X15240000Y38100000D01*
D28*
%TO.N,GND*%
X5567300Y42051400D02*
X5547400Y42031500D01*
%TO.N,DONE*%
X21223400Y42051400D02*
X20178600Y42051400D01*
X16754000Y21580000D02*
X4114800Y21580000D01*
X21844000Y41430800D02*
X21223400Y42051400D01*
X26384800Y43713400D02*
X22885400Y43713400D01*
X20178600Y42051400D02*
X18984000Y42051400D01*
X22885400Y43713400D02*
X21223400Y42051400D01*
X21844000Y26670000D02*
X16754000Y21580000D01*
D27*
X18984000Y44130000D02*
X19050000Y44196000D01*
D28*
X21844000Y26670000D02*
X21844000Y41430800D01*
D27*
X18984000Y42051400D02*
X18984000Y44130000D01*
%TO.N,Net-(D1-K)*%
X25440500Y30059500D02*
X25440500Y31587500D01*
X25440500Y31587500D02*
X25603000Y31750000D01*
X25528000Y29972000D02*
X25440500Y30059500D01*
D29*
%TO.N,Net-(D1-A)*%
X28270200Y31750000D02*
X28702000Y32181800D01*
X28702000Y32181800D02*
X28702000Y34986200D01*
X27178000Y31750000D02*
X28270200Y31750000D01*
D30*
%TO.N,GPIO3*%
X7950000Y10744000D02*
X11166000Y13960000D01*
X11166000Y13960000D02*
X26980000Y13960000D01*
X7950000Y8890000D02*
X7950000Y10744000D01*
%TO.N,PWOUT*%
X20574000Y10160000D02*
X20574000Y8890000D01*
X11176000Y10922000D02*
X19812000Y10922000D01*
X19812000Y10922000D02*
X20574000Y10160000D01*
D27*
X12258000Y36733000D02*
X13305000Y36733000D01*
D29*
X24191200Y36286200D02*
X23901400Y36576000D01*
X28702000Y36286200D02*
X24191200Y36286200D01*
D28*
X12258000Y36733000D02*
X7269000Y36733000D01*
D30*
X10490000Y8890000D02*
X10490000Y10236000D01*
X10490000Y10236000D02*
X11176000Y10922000D01*
D28*
X7269000Y36733000D02*
X4114800Y33578800D01*
X4114800Y33578800D02*
X4114800Y26660000D01*
D27*
X13305000Y36733000D02*
X13462000Y36576000D01*
%TO.N,Net-(JP2-B)*%
X15382000Y33924000D02*
X11023600Y33924000D01*
D28*
X19252800Y49835200D02*
X19304000Y49784000D01*
D27*
X20320000Y40132000D02*
X19964400Y39776400D01*
X15382000Y33924000D02*
X18984000Y37526000D01*
X19964400Y39776400D02*
X18984000Y39776400D01*
X18984000Y37526000D02*
X18984000Y39776400D01*
D28*
X15118400Y49835200D02*
X19252800Y49835200D01*
D27*
%TO.N,Net-(U1-DRV)*%
X17800950Y43180000D02*
X16002000Y43180000D01*
X13208000Y40894000D02*
X13208000Y38608000D01*
X18034000Y42051400D02*
X18034000Y42946950D01*
X13462000Y41148000D02*
X13208000Y40894000D01*
X18034000Y42946950D02*
X17800950Y43180000D01*
%TD*%
%TA.AperFunction,Conductor*%
%TO.N,GND*%
G36*
X12824960Y41413693D02*
G01*
X12868225Y41370428D01*
X12877601Y41311222D01*
X12877803Y41311195D01*
X12877713Y41310517D01*
X12877796Y41309996D01*
X12877398Y41308125D01*
X12865197Y41215450D01*
X12849303Y41177071D01*
X12850755Y41176233D01*
X12788200Y41067888D01*
X12788200Y41067887D01*
X12788201Y41067886D01*
X12757500Y40953308D01*
X12757500Y39579562D01*
X12738593Y39521371D01*
X12738155Y39520774D01*
X12655207Y39408384D01*
X12610355Y39280204D01*
X12610353Y39280195D01*
X12607500Y39249775D01*
X12607500Y37966226D01*
X12610353Y37935806D01*
X12610355Y37935797D01*
X12625722Y37891881D01*
X12627095Y37830711D01*
X12592251Y37780416D01*
X12534500Y37760208D01*
X12499583Y37765738D01*
X12492704Y37768145D01*
X12492694Y37768147D01*
X12462274Y37771000D01*
X12462266Y37771000D01*
X12053734Y37771000D01*
X12053725Y37771000D01*
X12023305Y37768147D01*
X12023296Y37768145D01*
X12016414Y37765737D01*
X11955244Y37764367D01*
X11904951Y37799214D01*
X11884746Y37856967D01*
X11890276Y37891877D01*
X11905646Y37935801D01*
X11908499Y37966227D01*
X11908500Y37966227D01*
X11908500Y39249773D01*
X11908499Y39249775D01*
X11905646Y39280195D01*
X11905646Y39280199D01*
X11877879Y39359554D01*
X11864056Y39399058D01*
X11858500Y39431756D01*
X11858500Y39640675D01*
X11856018Y39649936D01*
X11820984Y39780685D01*
X11798854Y39819015D01*
X11748510Y39906215D01*
X11554626Y40100099D01*
X11526851Y40154613D01*
X11536422Y40215045D01*
X11554625Y40240101D01*
X12710013Y41395489D01*
X12764528Y41423264D01*
X12824960Y41413693D01*
G37*
%TD.AperFunction*%
%TA.AperFunction,Conductor*%
G36*
X26983934Y53332815D02*
G01*
X27178333Y53330271D01*
X27187361Y53329738D01*
X27574592Y53289037D01*
X27584819Y53287416D01*
X27965032Y53206597D01*
X27975039Y53203916D01*
X28344703Y53083803D01*
X28354371Y53080093D01*
X28709478Y52921987D01*
X28718700Y52917288D01*
X29055319Y52722940D01*
X29064003Y52717302D01*
X29378487Y52488816D01*
X29386526Y52482305D01*
X29675368Y52222230D01*
X29675386Y52222214D01*
X29682713Y52214887D01*
X29942789Y51926043D01*
X29942798Y51926034D01*
X29949320Y51917981D01*
X30177799Y51603507D01*
X30183442Y51594816D01*
X30377784Y51258207D01*
X30382489Y51248974D01*
X30540590Y50893875D01*
X30544303Y50884201D01*
X30664414Y50514542D01*
X30667096Y50504533D01*
X30747915Y50124320D01*
X30749537Y50114085D01*
X30790236Y49726875D01*
X30790770Y49717822D01*
X30793315Y49523435D01*
X30793323Y49522139D01*
X30793323Y3803464D01*
X30793314Y3802147D01*
X30790728Y3607821D01*
X30790195Y3598790D01*
X30749498Y3211562D01*
X30747877Y3201327D01*
X30667065Y2821125D01*
X30664383Y2811116D01*
X30544270Y2441441D01*
X30540556Y2431767D01*
X30382465Y2076683D01*
X30377761Y2067450D01*
X30183414Y1730826D01*
X30177770Y1722135D01*
X29949308Y1407680D01*
X29942787Y1399626D01*
X29682692Y1110758D01*
X29675364Y1103431D01*
X29386513Y843345D01*
X29378460Y836824D01*
X29064002Y608354D01*
X29055311Y602710D01*
X28718701Y408366D01*
X28709469Y403661D01*
X28354364Y245554D01*
X28344689Y241841D01*
X27975028Y121729D01*
X27965019Y119047D01*
X27584826Y38232D01*
X27574591Y36610D01*
X27231447Y542D01*
X27221098Y0D01*
X3884662Y0D01*
X3874314Y542D01*
X3532043Y36515D01*
X3521808Y38136D01*
X3141593Y118951D01*
X3131584Y121633D01*
X2761902Y241749D01*
X2752227Y245463D01*
X2397129Y403561D01*
X2387896Y408265D01*
X2051263Y602619D01*
X2042572Y608263D01*
X1728096Y836742D01*
X1720048Y843260D01*
X1431182Y1103356D01*
X1423855Y1110683D01*
X1163758Y1399551D01*
X1157247Y1407590D01*
X928759Y1722077D01*
X923118Y1730764D01*
X923082Y1730826D01*
X728761Y2067402D01*
X724060Y2076630D01*
X724036Y2076683D01*
X565962Y2431728D01*
X562248Y2441403D01*
X522334Y2564247D01*
X442129Y2811094D01*
X439452Y2821085D01*
X358632Y3201327D01*
X357015Y3211534D01*
X348568Y3291905D01*
X1990885Y3291905D01*
X1990885Y3043742D01*
X2031730Y2798968D01*
X2112310Y2564244D01*
X2230421Y2345995D01*
X2382846Y2150160D01*
X2565425Y1982084D01*
X2565427Y1982083D01*
X2565429Y1982081D01*
X2773173Y1846355D01*
X2773178Y1846352D01*
X3000439Y1746666D01*
X3241008Y1685746D01*
X3488323Y1665252D01*
X3735638Y1685746D01*
X3976207Y1746666D01*
X4203468Y1846352D01*
X4411221Y1982084D01*
X4593800Y2150160D01*
X4746225Y2345995D01*
X4864337Y2564247D01*
X4944915Y2798964D01*
X4985761Y3043742D01*
X4988323Y3167823D01*
X4985761Y3291904D01*
X4985761Y3291905D01*
X26120885Y3291905D01*
X26120885Y3043742D01*
X26161730Y2798968D01*
X26242310Y2564244D01*
X26360421Y2345995D01*
X26512846Y2150160D01*
X26695425Y1982084D01*
X26695427Y1982083D01*
X26695429Y1982081D01*
X26903173Y1846355D01*
X26903178Y1846352D01*
X27130439Y1746666D01*
X27371008Y1685746D01*
X27618323Y1665252D01*
X27865638Y1685746D01*
X28106207Y1746666D01*
X28333468Y1846352D01*
X28541221Y1982084D01*
X28723800Y2150160D01*
X28876225Y2345995D01*
X28994337Y2564247D01*
X29074915Y2798964D01*
X29115761Y3043742D01*
X29118323Y3167823D01*
X29115761Y3291904D01*
X29074915Y3536682D01*
X28994337Y3771399D01*
X28876225Y3989651D01*
X28723800Y4185486D01*
X28541221Y4353562D01*
X28541218Y4353564D01*
X28541216Y4353566D01*
X28333472Y4489292D01*
X28333467Y4489295D01*
X28106207Y4588980D01*
X27865636Y4649901D01*
X27618323Y4670393D01*
X27371009Y4649901D01*
X27130438Y4588980D01*
X26903178Y4489295D01*
X26903173Y4489292D01*
X26695429Y4353566D01*
X26512843Y4185483D01*
X26360423Y3989655D01*
X26360421Y3989652D01*
X26242310Y3771403D01*
X26161730Y3536679D01*
X26120885Y3291905D01*
X4985761Y3291905D01*
X4944915Y3536682D01*
X4864337Y3771399D01*
X4746225Y3989651D01*
X4593800Y4185486D01*
X4411221Y4353562D01*
X4411218Y4353564D01*
X4411216Y4353566D01*
X4203472Y4489292D01*
X4203467Y4489295D01*
X3976207Y4588980D01*
X3735636Y4649901D01*
X3488323Y4670393D01*
X3241009Y4649901D01*
X3000438Y4588980D01*
X2773178Y4489295D01*
X2773173Y4489292D01*
X2565429Y4353566D01*
X2382843Y4185483D01*
X2230423Y3989655D01*
X2230421Y3989652D01*
X2112310Y3771403D01*
X2031730Y3536679D01*
X1990885Y3291905D01*
X348568Y3291905D01*
X316318Y3598756D01*
X315785Y3607847D01*
X313331Y3802190D01*
X313323Y3803440D01*
X313323Y9774870D01*
X2964300Y9774870D01*
X2964300Y7985140D01*
X2964301Y7985137D01*
X2967214Y7960010D01*
X2992556Y7902615D01*
X3012594Y7857235D01*
X3092035Y7777794D01*
X3194809Y7732415D01*
X3219935Y7729500D01*
X5009664Y7729501D01*
X5034791Y7732415D01*
X5137565Y7777794D01*
X5217006Y7857235D01*
X5262385Y7960009D01*
X5265300Y7985135D01*
X5265299Y9774864D01*
X5264139Y9784870D01*
X6799500Y9784870D01*
X6799500Y7995140D01*
X6799501Y7995137D01*
X6802414Y7970010D01*
X6803325Y7967947D01*
X6847794Y7867235D01*
X6927235Y7787794D01*
X7030009Y7742415D01*
X7055135Y7739500D01*
X8844864Y7739501D01*
X8869991Y7742415D01*
X8972765Y7787794D01*
X9052206Y7867235D01*
X9097585Y7970009D01*
X9100500Y7995135D01*
X9100499Y8890000D01*
X9334571Y8890000D01*
X9354244Y8677690D01*
X9412595Y8472611D01*
X9507634Y8281745D01*
X9636128Y8111593D01*
X9636135Y8111587D01*
X9793692Y7967953D01*
X9793699Y7967947D01*
X9897389Y7903745D01*
X9974981Y7855702D01*
X10173802Y7778679D01*
X10383390Y7739500D01*
X10596610Y7739500D01*
X10806198Y7778679D01*
X11005019Y7855702D01*
X11186302Y7967948D01*
X11343872Y8111593D01*
X11472366Y8281745D01*
X11567405Y8472611D01*
X11625756Y8677690D01*
X11645429Y8890000D01*
X11631530Y9040000D01*
X11888973Y9040000D01*
X12552555Y9040000D01*
X12530000Y8955826D01*
X12530000Y8824174D01*
X12552555Y8740000D01*
X11888973Y8740000D01*
X11894738Y8677784D01*
X11953064Y8472790D01*
X12048057Y8282017D01*
X12048062Y8282008D01*
X12176496Y8111936D01*
X12176506Y8111925D01*
X12333995Y7968353D01*
X12333994Y7968353D01*
X12515206Y7856153D01*
X12713941Y7779162D01*
X12879999Y7748120D01*
X12880000Y7748120D01*
X12880000Y8412555D01*
X12964174Y8390000D01*
X13095826Y8390000D01*
X13180000Y8412555D01*
X13180000Y7748120D01*
X13346058Y7779162D01*
X13544793Y7856153D01*
X13726004Y7968353D01*
X13883493Y8111925D01*
X13883503Y8111936D01*
X14011937Y8282008D01*
X14011942Y8282017D01*
X14106935Y8472790D01*
X14165261Y8677784D01*
X14171027Y8740000D01*
X13507445Y8740000D01*
X13530000Y8824174D01*
X13530000Y8955826D01*
X13507445Y9040000D01*
X14171026Y9040000D01*
X16892973Y9040000D01*
X17556555Y9040000D01*
X17534000Y8955826D01*
X17534000Y8824174D01*
X17556555Y8740000D01*
X16892973Y8740000D01*
X16898738Y8677784D01*
X16957064Y8472790D01*
X17052057Y8282017D01*
X17052062Y8282008D01*
X17180496Y8111936D01*
X17180506Y8111925D01*
X17337995Y7968353D01*
X17337994Y7968353D01*
X17519206Y7856153D01*
X17717941Y7779162D01*
X17883999Y7748120D01*
X17884000Y7748120D01*
X17884000Y8412555D01*
X17968174Y8390000D01*
X18099826Y8390000D01*
X18184000Y8412555D01*
X18184000Y7748120D01*
X18350058Y7779162D01*
X18548793Y7856153D01*
X18730004Y7968353D01*
X18887493Y8111925D01*
X18887503Y8111936D01*
X19015937Y8282008D01*
X19015942Y8282017D01*
X19110935Y8472790D01*
X19169261Y8677784D01*
X19175027Y8740000D01*
X18511445Y8740000D01*
X18534000Y8824174D01*
X18534000Y8955826D01*
X18511445Y9040000D01*
X19175026Y9040000D01*
X19169261Y9102217D01*
X19110935Y9307211D01*
X19015942Y9497984D01*
X19015937Y9497993D01*
X18887503Y9668065D01*
X18887493Y9668076D01*
X18730004Y9811648D01*
X18730005Y9811648D01*
X18548793Y9923848D01*
X18350061Y10000838D01*
X18350055Y10000840D01*
X18184000Y10031882D01*
X18184000Y9367446D01*
X18099826Y9390000D01*
X17968174Y9390000D01*
X17884000Y9367446D01*
X17884000Y10031881D01*
X17883999Y10031882D01*
X17717944Y10000840D01*
X17717938Y10000838D01*
X17519206Y9923848D01*
X17337995Y9811648D01*
X17180506Y9668076D01*
X17180496Y9668065D01*
X17052062Y9497993D01*
X17052057Y9497984D01*
X16957064Y9307211D01*
X16898738Y9102217D01*
X16892973Y9040000D01*
X14171026Y9040000D01*
X14165261Y9102217D01*
X14106935Y9307211D01*
X14011942Y9497984D01*
X14011937Y9497993D01*
X13883503Y9668065D01*
X13883493Y9668076D01*
X13726004Y9811648D01*
X13726005Y9811648D01*
X13544793Y9923848D01*
X13346061Y10000838D01*
X13346055Y10000840D01*
X13180000Y10031882D01*
X13180000Y9367446D01*
X13095826Y9390000D01*
X12964174Y9390000D01*
X12880000Y9367446D01*
X12880000Y10031881D01*
X12879999Y10031882D01*
X12713944Y10000840D01*
X12713938Y10000838D01*
X12515206Y9923848D01*
X12333995Y9811648D01*
X12176506Y9668076D01*
X12176496Y9668065D01*
X12048062Y9497993D01*
X12048057Y9497984D01*
X11953064Y9307211D01*
X11894738Y9102217D01*
X11888973Y9040000D01*
X11631530Y9040000D01*
X11625756Y9102310D01*
X11567405Y9307389D01*
X11472366Y9498255D01*
X11343872Y9668407D01*
X11289623Y9717861D01*
X11186307Y9812048D01*
X11186300Y9812054D01*
X11037847Y9903972D01*
X10998326Y9950680D01*
X10993807Y10011699D01*
X11019961Y10058147D01*
X11354319Y10392504D01*
X11408835Y10420281D01*
X11424322Y10421500D01*
X19563678Y10421500D01*
X19621869Y10402593D01*
X19633682Y10392504D01*
X19997101Y10029085D01*
X20024878Y9974568D01*
X20015307Y9914136D01*
X19979215Y9874910D01*
X19877695Y9812051D01*
X19877692Y9812048D01*
X19720135Y9668414D01*
X19720131Y9668411D01*
X19720128Y9668407D01*
X19720125Y9668403D01*
X19591635Y9498257D01*
X19591630Y9498248D01*
X19496596Y9307392D01*
X19496595Y9307389D01*
X19484655Y9265426D01*
X19438244Y9102312D01*
X19418571Y8890000D01*
X19438244Y8677690D01*
X19496595Y8472611D01*
X19591634Y8281745D01*
X19720128Y8111593D01*
X19720135Y8111587D01*
X19877692Y7967953D01*
X19877699Y7967947D01*
X19981389Y7903745D01*
X20058981Y7855702D01*
X20257802Y7778679D01*
X20467390Y7739500D01*
X20680610Y7739500D01*
X20890198Y7778679D01*
X21089019Y7855702D01*
X21270302Y7967948D01*
X21427872Y8111593D01*
X21556366Y8281745D01*
X21651405Y8472611D01*
X21709756Y8677690D01*
X21729429Y8890000D01*
X21709756Y9102310D01*
X21651405Y9307389D01*
X21556366Y9498255D01*
X21427872Y9668407D01*
X21373623Y9717861D01*
X21300119Y9784870D01*
X21963500Y9784870D01*
X21963500Y7995140D01*
X21963501Y7995137D01*
X21966414Y7970010D01*
X21967325Y7967947D01*
X22011794Y7867235D01*
X22091235Y7787794D01*
X22194009Y7742415D01*
X22219135Y7739500D01*
X24008864Y7739501D01*
X24033991Y7742415D01*
X24136765Y7787794D01*
X24216206Y7867235D01*
X24261585Y7970009D01*
X24264500Y7995135D01*
X24264499Y9774870D01*
X25829500Y9774870D01*
X25829500Y7985140D01*
X25829501Y7985137D01*
X25832414Y7960010D01*
X25857756Y7902615D01*
X25877794Y7857235D01*
X25957235Y7777794D01*
X26060009Y7732415D01*
X26085135Y7729500D01*
X27874864Y7729501D01*
X27899991Y7732415D01*
X28002765Y7777794D01*
X28082206Y7857235D01*
X28127585Y7960009D01*
X28130500Y7985135D01*
X28130499Y9774864D01*
X28127585Y9799991D01*
X28082206Y9902765D01*
X28002765Y9982206D01*
X27899991Y10027585D01*
X27899990Y10027586D01*
X27899988Y10027586D01*
X27874868Y10030500D01*
X26085139Y10030500D01*
X26085136Y10030499D01*
X26060009Y10027586D01*
X25957235Y9982206D01*
X25877794Y9902765D01*
X25832414Y9799989D01*
X25829500Y9774870D01*
X24264499Y9774870D01*
X24264499Y9784864D01*
X24261585Y9809991D01*
X24216206Y9912765D01*
X24136765Y9992206D01*
X24033991Y10037585D01*
X24033990Y10037586D01*
X24033988Y10037586D01*
X24008868Y10040500D01*
X22219139Y10040500D01*
X22219136Y10040499D01*
X22194009Y10037586D01*
X22091235Y9992206D01*
X22011794Y9912765D01*
X21966414Y9809989D01*
X21963500Y9784870D01*
X21300119Y9784870D01*
X21270307Y9812048D01*
X21270300Y9812054D01*
X21121383Y9904260D01*
X21081862Y9950969D01*
X21074500Y9988431D01*
X21074500Y10225891D01*
X21054136Y10301892D01*
X21040392Y10353186D01*
X21040390Y10353189D01*
X21040390Y10353191D01*
X20974503Y10467310D01*
X20974499Y10467315D01*
X20881314Y10560501D01*
X20881314Y10560500D01*
X20119314Y11322500D01*
X20119311Y11322502D01*
X20119310Y11322503D01*
X20119309Y11322504D01*
X20005189Y11388391D01*
X20005191Y11388391D01*
X19955799Y11401625D01*
X19887222Y11420000D01*
X25824571Y11420000D01*
X25833605Y11322500D01*
X25844244Y11207690D01*
X25902595Y11002611D01*
X25997634Y10811745D01*
X26126128Y10641593D01*
X26126135Y10641587D01*
X26283692Y10497953D01*
X26283699Y10497947D01*
X26287364Y10495678D01*
X26464981Y10385702D01*
X26663802Y10308679D01*
X26873390Y10269500D01*
X27086610Y10269500D01*
X27296198Y10308679D01*
X27495019Y10385702D01*
X27676302Y10497948D01*
X27833872Y10641593D01*
X27962366Y10811745D01*
X28057405Y11002611D01*
X28115756Y11207690D01*
X28135429Y11420000D01*
X28115756Y11632310D01*
X28057405Y11837389D01*
X27962366Y12028255D01*
X27833872Y12198407D01*
X27779623Y12247861D01*
X27676307Y12342048D01*
X27676300Y12342054D01*
X27495024Y12454295D01*
X27495019Y12454298D01*
X27296195Y12531322D01*
X27086610Y12570500D01*
X26873390Y12570500D01*
X26663804Y12531322D01*
X26464980Y12454298D01*
X26464975Y12454295D01*
X26283699Y12342054D01*
X26283692Y12342048D01*
X26126135Y12198414D01*
X26126131Y12198411D01*
X26126128Y12198407D01*
X26126125Y12198403D01*
X25997635Y12028257D01*
X25997630Y12028248D01*
X25902596Y11837392D01*
X25844244Y11632312D01*
X25824571Y11420000D01*
X19887222Y11420000D01*
X19877892Y11422500D01*
X11110108Y11422500D01*
X11032200Y11401625D01*
X10982809Y11388391D01*
X10901003Y11341160D01*
X10901004Y11341159D01*
X10868687Y11322501D01*
X10182686Y10636500D01*
X10182685Y10636501D01*
X10089500Y10543315D01*
X10089496Y10543310D01*
X10023609Y10429191D01*
X9989500Y10301891D01*
X9989500Y9988431D01*
X9970593Y9930240D01*
X9942617Y9904260D01*
X9793699Y9812054D01*
X9793692Y9812048D01*
X9636135Y9668414D01*
X9636131Y9668411D01*
X9636128Y9668407D01*
X9636125Y9668403D01*
X9507635Y9498257D01*
X9507630Y9498248D01*
X9412596Y9307392D01*
X9412595Y9307389D01*
X9400655Y9265426D01*
X9354244Y9102312D01*
X9334571Y8890000D01*
X9100499Y8890000D01*
X9100499Y9784864D01*
X9097585Y9809991D01*
X9052206Y9912765D01*
X8972765Y9992206D01*
X8869991Y10037585D01*
X8869990Y10037586D01*
X8869988Y10037586D01*
X8844869Y10040500D01*
X8844865Y10040500D01*
X8549500Y10040500D01*
X8491309Y10059407D01*
X8455345Y10108907D01*
X8450500Y10139500D01*
X8450500Y10495678D01*
X8469407Y10553869D01*
X8479496Y10565682D01*
X11344318Y13430504D01*
X11398835Y13458281D01*
X11414322Y13459500D01*
X25882681Y13459500D01*
X25940872Y13440593D01*
X25971301Y13404630D01*
X25997634Y13351745D01*
X26126128Y13181593D01*
X26126135Y13181587D01*
X26283692Y13037953D01*
X26283699Y13037947D01*
X26387389Y12973745D01*
X26464981Y12925702D01*
X26663802Y12848679D01*
X26873390Y12809500D01*
X27086610Y12809500D01*
X27296198Y12848679D01*
X27495019Y12925702D01*
X27676302Y13037948D01*
X27833872Y13181593D01*
X27962366Y13351745D01*
X28057405Y13542611D01*
X28115756Y13747690D01*
X28135429Y13960000D01*
X28115756Y14172310D01*
X28057405Y14377389D01*
X27962366Y14568255D01*
X27833872Y14738407D01*
X27779623Y14787861D01*
X27676307Y14882048D01*
X27676300Y14882054D01*
X27495024Y14994295D01*
X27495019Y14994298D01*
X27296195Y15071322D01*
X27086610Y15110500D01*
X26873390Y15110500D01*
X26663804Y15071322D01*
X26464980Y14994298D01*
X26464975Y14994295D01*
X26283699Y14882054D01*
X26283692Y14882048D01*
X26126135Y14738414D01*
X26126131Y14738411D01*
X26126128Y14738407D01*
X26126125Y14738403D01*
X25997635Y14568257D01*
X25997634Y14568255D01*
X25971301Y14515372D01*
X25928440Y14471710D01*
X25882681Y14460500D01*
X11231893Y14460500D01*
X11100108Y14460500D01*
X11022200Y14439625D01*
X10972809Y14426391D01*
X10858690Y14360504D01*
X7642686Y11144500D01*
X7642685Y11144501D01*
X7549500Y11051315D01*
X7549496Y11051310D01*
X7483609Y10937191D01*
X7449500Y10809891D01*
X7449500Y10139500D01*
X7430593Y10081309D01*
X7381093Y10045345D01*
X7350500Y10040500D01*
X7055139Y10040500D01*
X7055136Y10040499D01*
X7030009Y10037586D01*
X6927235Y9992206D01*
X6847794Y9912765D01*
X6802414Y9809989D01*
X6799500Y9784870D01*
X5264139Y9784870D01*
X5262385Y9799991D01*
X5217006Y9902765D01*
X5137565Y9982206D01*
X5034791Y10027585D01*
X5034790Y10027586D01*
X5034788Y10027586D01*
X5009668Y10030500D01*
X3219939Y10030500D01*
X3219936Y10030499D01*
X3194809Y10027586D01*
X3092035Y9982206D01*
X3012594Y9902765D01*
X2967214Y9799989D01*
X2964300Y9774870D01*
X313323Y9774870D01*
X313323Y11420000D01*
X2959371Y11420000D01*
X2968405Y11322500D01*
X2979044Y11207690D01*
X3037395Y11002611D01*
X3132434Y10811745D01*
X3260928Y10641593D01*
X3260935Y10641587D01*
X3418492Y10497953D01*
X3418499Y10497947D01*
X3422164Y10495678D01*
X3599781Y10385702D01*
X3798602Y10308679D01*
X4008190Y10269500D01*
X4221410Y10269500D01*
X4430998Y10308679D01*
X4629819Y10385702D01*
X4811102Y10497948D01*
X4968672Y10641593D01*
X5097166Y10811745D01*
X5192205Y11002611D01*
X5250556Y11207690D01*
X5270229Y11420000D01*
X5250556Y11632310D01*
X5192205Y11837389D01*
X5097166Y12028255D01*
X4968672Y12198407D01*
X4914423Y12247861D01*
X4811107Y12342048D01*
X4811100Y12342054D01*
X4629824Y12454295D01*
X4629819Y12454298D01*
X4430995Y12531322D01*
X4221410Y12570500D01*
X4008190Y12570500D01*
X3798604Y12531322D01*
X3599780Y12454298D01*
X3599775Y12454295D01*
X3418499Y12342054D01*
X3418492Y12342048D01*
X3260935Y12198414D01*
X3260931Y12198411D01*
X3260928Y12198407D01*
X3260925Y12198403D01*
X3132435Y12028257D01*
X3132430Y12028248D01*
X3037396Y11837392D01*
X2979044Y11632312D01*
X2959371Y11420000D01*
X313323Y11420000D01*
X313323Y13960000D01*
X2959371Y13960000D01*
X2979044Y13747690D01*
X3037395Y13542611D01*
X3132434Y13351745D01*
X3260928Y13181593D01*
X3260935Y13181587D01*
X3418492Y13037953D01*
X3418499Y13037947D01*
X3522189Y12973745D01*
X3599781Y12925702D01*
X3798602Y12848679D01*
X4008190Y12809500D01*
X4221410Y12809500D01*
X4430998Y12848679D01*
X4629819Y12925702D01*
X4811102Y13037948D01*
X4968672Y13181593D01*
X5097166Y13351745D01*
X5192205Y13542611D01*
X5250556Y13747690D01*
X5270229Y13960000D01*
X5250556Y14172310D01*
X5192205Y14377389D01*
X5097166Y14568255D01*
X4968672Y14738407D01*
X4914423Y14787861D01*
X4811107Y14882048D01*
X4811100Y14882054D01*
X4629824Y14994295D01*
X4629819Y14994298D01*
X4430995Y15071322D01*
X4221410Y15110500D01*
X4008190Y15110500D01*
X3798604Y15071322D01*
X3599780Y14994298D01*
X3599775Y14994295D01*
X3418499Y14882054D01*
X3418492Y14882048D01*
X3260935Y14738414D01*
X3260931Y14738411D01*
X3260928Y14738407D01*
X3260925Y14738403D01*
X3132435Y14568257D01*
X3132430Y14568248D01*
X3037396Y14377392D01*
X2979044Y14172312D01*
X2979044Y14172310D01*
X2959371Y13960000D01*
X313323Y13960000D01*
X313323Y16500000D01*
X2959371Y16500000D01*
X2979044Y16287690D01*
X3037395Y16082611D01*
X3132434Y15891745D01*
X3260928Y15721593D01*
X3260935Y15721587D01*
X3418492Y15577953D01*
X3418499Y15577947D01*
X3522189Y15513745D01*
X3599781Y15465702D01*
X3798602Y15388679D01*
X4008190Y15349500D01*
X4221410Y15349500D01*
X4430998Y15388679D01*
X4629819Y15465702D01*
X4811102Y15577948D01*
X4968672Y15721593D01*
X5097166Y15891745D01*
X5192205Y16082611D01*
X5250556Y16287690D01*
X5270229Y16500000D01*
X25824571Y16500000D01*
X25844244Y16287690D01*
X25902595Y16082611D01*
X25997634Y15891745D01*
X26126128Y15721593D01*
X26126135Y15721587D01*
X26283692Y15577953D01*
X26283699Y15577947D01*
X26387389Y15513745D01*
X26464981Y15465702D01*
X26663802Y15388679D01*
X26873390Y15349500D01*
X27086610Y15349500D01*
X27296198Y15388679D01*
X27495019Y15465702D01*
X27676302Y15577948D01*
X27833872Y15721593D01*
X27962366Y15891745D01*
X28057405Y16082611D01*
X28115756Y16287690D01*
X28135429Y16500000D01*
X28115756Y16712310D01*
X28057405Y16917389D01*
X27962366Y17108255D01*
X27833872Y17278407D01*
X27779623Y17327861D01*
X27676307Y17422048D01*
X27676300Y17422054D01*
X27495024Y17534295D01*
X27495019Y17534298D01*
X27296195Y17611322D01*
X27086610Y17650500D01*
X26873390Y17650500D01*
X26663804Y17611322D01*
X26464980Y17534298D01*
X26464975Y17534295D01*
X26283699Y17422054D01*
X26283692Y17422048D01*
X26126135Y17278414D01*
X26126131Y17278411D01*
X26126128Y17278407D01*
X26126125Y17278403D01*
X25997635Y17108257D01*
X25997630Y17108248D01*
X25902596Y16917392D01*
X25844244Y16712312D01*
X25844244Y16712310D01*
X25824571Y16500000D01*
X5270229Y16500000D01*
X5250556Y16712310D01*
X5192205Y16917389D01*
X5097166Y17108255D01*
X4968672Y17278407D01*
X4914423Y17327861D01*
X4811107Y17422048D01*
X4811100Y17422054D01*
X4629824Y17534295D01*
X4629819Y17534298D01*
X4430995Y17611322D01*
X4221410Y17650500D01*
X4008190Y17650500D01*
X3798604Y17611322D01*
X3599780Y17534298D01*
X3599775Y17534295D01*
X3418499Y17422054D01*
X3418492Y17422048D01*
X3260935Y17278414D01*
X3260931Y17278411D01*
X3260928Y17278407D01*
X3260925Y17278403D01*
X3132435Y17108257D01*
X3132430Y17108248D01*
X3037396Y16917392D01*
X2979044Y16712312D01*
X2979044Y16712310D01*
X2959371Y16500000D01*
X313323Y16500000D01*
X313323Y19040000D01*
X2959371Y19040000D01*
X2979044Y18827690D01*
X3037395Y18622611D01*
X3132434Y18431745D01*
X3260928Y18261593D01*
X3260935Y18261587D01*
X3418492Y18117953D01*
X3418499Y18117947D01*
X3522189Y18053745D01*
X3599781Y18005702D01*
X3798602Y17928679D01*
X4008190Y17889500D01*
X4221410Y17889500D01*
X4430998Y17928679D01*
X4629819Y18005702D01*
X4811102Y18117948D01*
X4968672Y18261593D01*
X5097166Y18431745D01*
X5192205Y18622611D01*
X5250556Y18827690D01*
X5270229Y19040000D01*
X5256330Y19190000D01*
X25838973Y19190000D01*
X26502555Y19190000D01*
X26480000Y19105826D01*
X26480000Y18974174D01*
X26502555Y18890000D01*
X25838973Y18890000D01*
X25844738Y18827784D01*
X25903064Y18622790D01*
X25998057Y18432017D01*
X25998062Y18432008D01*
X26126496Y18261936D01*
X26126506Y18261925D01*
X26283995Y18118353D01*
X26283994Y18118353D01*
X26465206Y18006153D01*
X26663941Y17929162D01*
X26829999Y17898120D01*
X26830000Y17898120D01*
X26830000Y18562555D01*
X26914174Y18540000D01*
X27045826Y18540000D01*
X27130000Y18562555D01*
X27130000Y17898120D01*
X27296058Y17929162D01*
X27494793Y18006153D01*
X27676004Y18118353D01*
X27833493Y18261925D01*
X27833503Y18261936D01*
X27961937Y18432008D01*
X27961942Y18432017D01*
X28056935Y18622790D01*
X28115261Y18827784D01*
X28121027Y18890000D01*
X27457445Y18890000D01*
X27480000Y18974174D01*
X27480000Y19105826D01*
X27457445Y19190000D01*
X28121026Y19190000D01*
X28115261Y19252217D01*
X28056935Y19457211D01*
X27961942Y19647984D01*
X27961937Y19647993D01*
X27833503Y19818065D01*
X27833493Y19818076D01*
X27676004Y19961648D01*
X27676005Y19961648D01*
X27494793Y20073848D01*
X27296061Y20150838D01*
X27296055Y20150840D01*
X27130000Y20181882D01*
X27130000Y19517446D01*
X27045826Y19540000D01*
X26914174Y19540000D01*
X26830000Y19517446D01*
X26830000Y20181881D01*
X26829999Y20181882D01*
X26663944Y20150840D01*
X26663938Y20150838D01*
X26465206Y20073848D01*
X26283995Y19961648D01*
X26126506Y19818076D01*
X26126496Y19818065D01*
X25998062Y19647993D01*
X25998057Y19647984D01*
X25903064Y19457211D01*
X25844738Y19252217D01*
X25838973Y19190000D01*
X5256330Y19190000D01*
X5250556Y19252310D01*
X5192205Y19457389D01*
X5097166Y19648255D01*
X4968672Y19818407D01*
X4914423Y19867861D01*
X4811107Y19962048D01*
X4811100Y19962054D01*
X4629824Y20074295D01*
X4629819Y20074298D01*
X4430998Y20151321D01*
X4430997Y20151322D01*
X4430995Y20151322D01*
X4221410Y20190500D01*
X4008190Y20190500D01*
X3798604Y20151322D01*
X3599780Y20074298D01*
X3599775Y20074295D01*
X3418499Y19962054D01*
X3418492Y19962048D01*
X3260935Y19818414D01*
X3260931Y19818411D01*
X3260928Y19818407D01*
X3260925Y19818403D01*
X3132435Y19648257D01*
X3132430Y19648248D01*
X3037396Y19457392D01*
X3037395Y19457389D01*
X3025455Y19415426D01*
X2979044Y19252312D01*
X2959371Y19040000D01*
X313323Y19040000D01*
X313323Y24270000D01*
X2973773Y24270000D01*
X3637355Y24270000D01*
X3614800Y24185826D01*
X3614800Y24054174D01*
X3637355Y23970000D01*
X2973773Y23970000D01*
X2979538Y23907784D01*
X3037864Y23702790D01*
X3132857Y23512017D01*
X3132862Y23512008D01*
X3261296Y23341936D01*
X3261306Y23341925D01*
X3418795Y23198353D01*
X3418794Y23198353D01*
X3600006Y23086153D01*
X3798741Y23009162D01*
X3964799Y22978120D01*
X3964800Y22978120D01*
X3964800Y23642555D01*
X4048974Y23620000D01*
X4180626Y23620000D01*
X4264800Y23642555D01*
X4264800Y22978120D01*
X4430858Y23009162D01*
X4629593Y23086153D01*
X4810804Y23198353D01*
X4968293Y23341925D01*
X4968303Y23341936D01*
X5096737Y23512008D01*
X5096742Y23512017D01*
X5191735Y23702790D01*
X5250061Y23907784D01*
X5255827Y23970000D01*
X4592245Y23970000D01*
X4614800Y24054174D01*
X4614800Y24185826D01*
X4592245Y24270000D01*
X5255826Y24270000D01*
X5250061Y24332217D01*
X5191735Y24537211D01*
X5096742Y24727984D01*
X5096737Y24727993D01*
X4968303Y24898065D01*
X4968293Y24898076D01*
X4810804Y25041648D01*
X4810805Y25041648D01*
X4629593Y25153848D01*
X4430861Y25230838D01*
X4430855Y25230840D01*
X4264800Y25261882D01*
X4264800Y24597446D01*
X4180626Y24620000D01*
X4048974Y24620000D01*
X3964800Y24597446D01*
X3964800Y25261881D01*
X3964799Y25261882D01*
X3798744Y25230840D01*
X3798738Y25230838D01*
X3600006Y25153848D01*
X3418795Y25041648D01*
X3261306Y24898076D01*
X3261296Y24898065D01*
X3132862Y24727993D01*
X3132857Y24727984D01*
X3037864Y24537211D01*
X2979538Y24332217D01*
X2973773Y24270000D01*
X313323Y24270000D01*
X313323Y38224607D01*
X1496900Y38224607D01*
X1496900Y37038394D01*
X1507523Y36949935D01*
X1563037Y36809161D01*
X1563038Y36809159D01*
X1563039Y36809158D01*
X1654478Y36688578D01*
X1775058Y36597139D01*
X1775059Y36597139D01*
X1775060Y36597138D01*
X1813161Y36582113D01*
X1915836Y36541623D01*
X2004298Y36531000D01*
X2004300Y36531000D01*
X4590500Y36531000D01*
X4590502Y36531000D01*
X4678964Y36541623D01*
X4819742Y36597139D01*
X4940322Y36688578D01*
X5031761Y36809158D01*
X5087277Y36949936D01*
X5097900Y37038398D01*
X5097900Y38224602D01*
X5087277Y38313064D01*
X5031761Y38453842D01*
X4940322Y38574422D01*
X4819742Y38665861D01*
X4819741Y38665862D01*
X4819739Y38665863D01*
X4678965Y38721377D01*
X4590506Y38732000D01*
X4590502Y38732000D01*
X2004298Y38732000D01*
X2004293Y38732000D01*
X1915834Y38721377D01*
X1775060Y38665863D01*
X1775056Y38665860D01*
X1654481Y38574425D01*
X1654475Y38574419D01*
X1563040Y38453844D01*
X1563037Y38453840D01*
X1507523Y38313066D01*
X1496900Y38224607D01*
X313323Y38224607D01*
X313323Y40324607D01*
X2496900Y40324607D01*
X2496900Y39738394D01*
X2507523Y39649935D01*
X2563037Y39509161D01*
X2563038Y39509159D01*
X2563039Y39509158D01*
X2654478Y39388578D01*
X2775058Y39297139D01*
X2775059Y39297139D01*
X2775060Y39297138D01*
X2818025Y39280195D01*
X2915836Y39241623D01*
X3004298Y39231000D01*
X3004300Y39231000D01*
X8090500Y39231000D01*
X8090502Y39231000D01*
X8178964Y39241623D01*
X8319742Y39297139D01*
X8440322Y39388578D01*
X8480697Y39441822D01*
X8530923Y39476762D01*
X8559580Y39481000D01*
X10099625Y39481000D01*
X10495026Y39481000D01*
X10575667Y39481000D01*
X10633858Y39462093D01*
X10645671Y39452004D01*
X10694135Y39403540D01*
X10721912Y39349023D01*
X10717576Y39300841D01*
X10710353Y39280199D01*
X10707500Y39249775D01*
X10707500Y37966226D01*
X10710353Y37935806D01*
X10710355Y37935797D01*
X10755207Y37807617D01*
X10835845Y37698356D01*
X10835847Y37698354D01*
X10835850Y37698350D01*
X10835853Y37698348D01*
X10835855Y37698346D01*
X10945116Y37617708D01*
X10945117Y37617708D01*
X10945118Y37617707D01*
X11073301Y37572854D01*
X11103725Y37570001D01*
X11103727Y37570000D01*
X11103734Y37570000D01*
X11512273Y37570000D01*
X11512273Y37570001D01*
X11542699Y37572854D01*
X11549577Y37575262D01*
X11610746Y37576637D01*
X11661042Y37541795D01*
X11681253Y37484044D01*
X11675723Y37449121D01*
X11660354Y37405201D01*
X11660354Y37405200D01*
X11660354Y37405199D01*
X11657500Y37374766D01*
X11657500Y37374760D01*
X11657359Y37373256D01*
X11633101Y37317085D01*
X11580459Y37285900D01*
X11558791Y37283500D01*
X7196525Y37283500D01*
X7078620Y37251907D01*
X7056515Y37245984D01*
X6930985Y37173510D01*
X3674288Y33916813D01*
X3623126Y33828199D01*
X3623127Y33828198D01*
X3601816Y33791287D01*
X3564300Y33651275D01*
X3564300Y27727473D01*
X3545393Y27669282D01*
X3517417Y27643302D01*
X3418499Y27582055D01*
X3418496Y27582052D01*
X3260935Y27438414D01*
X3260931Y27438411D01*
X3260928Y27438407D01*
X3260925Y27438403D01*
X3132435Y27268257D01*
X3132430Y27268248D01*
X3037396Y27077392D01*
X2979044Y26872312D01*
X2959371Y26660000D01*
X2978133Y26457516D01*
X2979044Y26447690D01*
X3037395Y26242611D01*
X3132434Y26051745D01*
X3260928Y25881593D01*
X3260935Y25881587D01*
X3418492Y25737953D01*
X3418499Y25737947D01*
X3522189Y25673745D01*
X3599781Y25625702D01*
X3798602Y25548679D01*
X4008190Y25509500D01*
X4221410Y25509500D01*
X4430998Y25548679D01*
X4629819Y25625702D01*
X4811102Y25737948D01*
X4968672Y25881593D01*
X5097166Y26051745D01*
X5192205Y26242611D01*
X5250556Y26447690D01*
X5270229Y26660000D01*
X5250556Y26872310D01*
X5192205Y27077389D01*
X5097166Y27268255D01*
X4968672Y27438407D01*
X4930339Y27473353D01*
X4811103Y27582052D01*
X4811100Y27582055D01*
X4712183Y27643302D01*
X4672662Y27690011D01*
X4665300Y27727473D01*
X4665300Y33309767D01*
X4684207Y33367958D01*
X4694296Y33379771D01*
X5310419Y33995894D01*
X9968100Y33995894D01*
X9968100Y33423996D01*
X9969402Y33395817D01*
X9969402Y33395814D01*
X9969403Y33395812D01*
X9995000Y33305850D01*
X9992739Y33244706D01*
X9991900Y33242967D01*
X9992043Y33242911D01*
X9988729Y33234358D01*
X9968100Y33124001D01*
X9968100Y32552107D01*
X9980474Y32466045D01*
X9980475Y32466041D01*
X10020980Y32328093D01*
X10020982Y32328087D01*
X10050645Y32263134D01*
X10057105Y32248989D01*
X10057109Y32248982D01*
X10134830Y32128045D01*
X10134839Y32128033D01*
X10191769Y32062332D01*
X10191786Y32062314D01*
X10300436Y31968169D01*
X10300449Y31968160D01*
X10373580Y31921162D01*
X10373582Y31921161D01*
X10373590Y31921156D01*
X10504375Y31861428D01*
X10504376Y31861428D01*
X10504380Y31861426D01*
X10551352Y31847635D01*
X10587807Y31836930D01*
X10730122Y31816468D01*
X10817076Y31816467D01*
X10824208Y31817493D01*
X10838296Y31818500D01*
X11208904Y31818500D01*
X11222991Y31817493D01*
X11230124Y31816467D01*
X11317078Y31816468D01*
X11459393Y31836930D01*
X11521779Y31855249D01*
X11542819Y31861426D01*
X11542820Y31861427D01*
X11542825Y31861428D01*
X11673610Y31921156D01*
X11746758Y31968165D01*
X11803763Y32017559D01*
X11814735Y32027068D01*
X11855419Y32062319D01*
X11912364Y32128037D01*
X11990096Y32248991D01*
X12026218Y32328087D01*
X12066725Y32466042D01*
X12075274Y32525500D01*
X12079100Y32552107D01*
X12079100Y33124005D01*
X12077797Y33152184D01*
X12077797Y33152188D01*
X12052200Y33242151D01*
X12054460Y33303294D01*
X12055314Y33305029D01*
X12055157Y33305090D01*
X12058468Y33313639D01*
X12058470Y33313641D01*
X12073247Y33392691D01*
X12102524Y33446416D01*
X12157789Y33472673D01*
X12170561Y33473500D01*
X15441309Y33473500D01*
X15531669Y33497713D01*
X15531672Y33497713D01*
X15544903Y33501259D01*
X15555887Y33504201D01*
X15658614Y33563511D01*
X19344489Y37249386D01*
X19403799Y37352113D01*
X19418023Y37405199D01*
X19434500Y37466691D01*
X19434500Y38879838D01*
X19453407Y38938029D01*
X19453845Y38938626D01*
X19536792Y39051017D01*
X19536791Y39051017D01*
X19536793Y39051018D01*
X19581646Y39179201D01*
X19584499Y39209627D01*
X19584500Y39209627D01*
X19584500Y39226900D01*
X19603407Y39285091D01*
X19652907Y39321055D01*
X19683500Y39325900D01*
X20023709Y39325900D01*
X20114069Y39350113D01*
X20114072Y39350113D01*
X20127303Y39353659D01*
X20138287Y39356601D01*
X20241014Y39415911D01*
X20332421Y39507320D01*
X20386935Y39535097D01*
X20389459Y39535463D01*
X20476762Y39546956D01*
X20622841Y39607464D01*
X20748282Y39703718D01*
X20844536Y39829159D01*
X20905044Y39975238D01*
X20925682Y40132000D01*
X20905044Y40288762D01*
X20890199Y40324602D01*
X20844537Y40434839D01*
X20844537Y40434840D01*
X20748286Y40560277D01*
X20748285Y40560278D01*
X20748282Y40560282D01*
X20748277Y40560286D01*
X20748276Y40560287D01*
X20622838Y40656538D01*
X20476766Y40717043D01*
X20476758Y40717045D01*
X20320001Y40737682D01*
X20319999Y40737682D01*
X20163241Y40717045D01*
X20163233Y40717043D01*
X20017161Y40656538D01*
X20017160Y40656538D01*
X19891723Y40560287D01*
X19891713Y40560277D01*
X19795463Y40434840D01*
X19767192Y40366588D01*
X19727455Y40320062D01*
X19667960Y40305779D01*
X19611432Y40329194D01*
X19582284Y40371776D01*
X19560217Y40434840D01*
X19536793Y40501782D01*
X19498371Y40553842D01*
X19456154Y40611045D01*
X19456152Y40611047D01*
X19456150Y40611050D01*
X19456146Y40611053D01*
X19456144Y40611055D01*
X19346883Y40691693D01*
X19218703Y40736545D01*
X19218694Y40736547D01*
X19188274Y40739400D01*
X19188266Y40739400D01*
X18779734Y40739400D01*
X18779725Y40739400D01*
X18749305Y40736547D01*
X18749296Y40736545D01*
X18621116Y40691693D01*
X18567365Y40652023D01*
X18509317Y40632682D01*
X18450987Y40651154D01*
X18449789Y40652024D01*
X18396647Y40691246D01*
X18268601Y40736050D01*
X18238211Y40738900D01*
X18184001Y40738900D01*
X18184000Y40738899D01*
X18184000Y38813902D01*
X18184001Y38813901D01*
X18238203Y38813901D01*
X18268600Y38816751D01*
X18268606Y38816752D01*
X18401802Y38863359D01*
X18462972Y38864732D01*
X18513267Y38829888D01*
X18533475Y38772137D01*
X18533500Y38769915D01*
X18533500Y37753611D01*
X18514593Y37695420D01*
X18504504Y37683607D01*
X15224393Y34403496D01*
X15169876Y34375719D01*
X15154389Y34374500D01*
X11995640Y34374500D01*
X11937449Y34393407D01*
X11914812Y34417376D01*
X11914485Y34417130D01*
X11912360Y34419968D01*
X11855430Y34485669D01*
X11855413Y34485687D01*
X11746763Y34579832D01*
X11746750Y34579841D01*
X11673619Y34626839D01*
X11673613Y34626842D01*
X11673610Y34626844D01*
X11585136Y34667249D01*
X11542819Y34686575D01*
X11459394Y34711070D01*
X11459389Y34711071D01*
X11317076Y34731533D01*
X11230124Y34731533D01*
X11222991Y34730508D01*
X11208904Y34729500D01*
X10838296Y34729500D01*
X10824208Y34730508D01*
X10817076Y34731533D01*
X10817075Y34731533D01*
X10730122Y34731533D01*
X10587810Y34711071D01*
X10587805Y34711070D01*
X10504380Y34686575D01*
X10373588Y34626843D01*
X10373580Y34626839D01*
X10300449Y34579841D01*
X10300436Y34579832D01*
X10191786Y34485687D01*
X10191769Y34485669D01*
X10134839Y34419968D01*
X10134830Y34419956D01*
X10057109Y34299019D01*
X10057105Y34299012D01*
X10020980Y34219908D01*
X9980475Y34081960D01*
X9980474Y34081956D01*
X9968100Y33995894D01*
X5310419Y33995894D01*
X7468029Y36153504D01*
X7522546Y36181281D01*
X7538033Y36182500D01*
X11558791Y36182500D01*
X11616982Y36163593D01*
X11652946Y36114093D01*
X11657359Y36092744D01*
X11657500Y36091241D01*
X11657500Y36091234D01*
X11658372Y36081936D01*
X11660354Y36060798D01*
X11660355Y36060797D01*
X11705207Y35932617D01*
X11785845Y35823356D01*
X11785847Y35823354D01*
X11785850Y35823350D01*
X11785853Y35823348D01*
X11785855Y35823346D01*
X11895116Y35742708D01*
X11895117Y35742708D01*
X11895118Y35742707D01*
X12023301Y35697854D01*
X12053725Y35695001D01*
X12053727Y35695000D01*
X12053734Y35695000D01*
X12462273Y35695000D01*
X12462273Y35695001D01*
X12492699Y35697854D01*
X12620882Y35742707D01*
X12730150Y35823350D01*
X12810793Y35932618D01*
X12855646Y36060801D01*
X12857629Y36081942D01*
X12858717Y36093540D01*
X12860036Y36093417D01*
X12879846Y36146339D01*
X12930881Y36180090D01*
X12992007Y36177398D01*
X13027758Y36150936D01*
X13029130Y36152307D01*
X13033713Y36147724D01*
X13033718Y36147718D01*
X13159159Y36051464D01*
X13159160Y36051464D01*
X13159161Y36051463D01*
X13305233Y35990958D01*
X13305238Y35990956D01*
X13422809Y35975478D01*
X13461999Y35970318D01*
X13462000Y35970318D01*
X13462001Y35970318D01*
X13493352Y35974446D01*
X13618762Y35990956D01*
X13764841Y36051464D01*
X13890282Y36147718D01*
X13949582Y36224999D01*
X14215000Y36224999D01*
X14215000Y36081936D01*
X14225613Y35993557D01*
X14281080Y35852905D01*
X14372435Y35732436D01*
X14492904Y35641081D01*
X14633556Y35585614D01*
X14721935Y35575001D01*
X14721942Y35575000D01*
X15089999Y35575000D01*
X15090000Y35575001D01*
X15090000Y36224999D01*
X15390000Y36224999D01*
X15390000Y35575001D01*
X15390001Y35575000D01*
X15758058Y35575000D01*
X15758064Y35575001D01*
X15846443Y35585614D01*
X15987095Y35641081D01*
X16107564Y35732436D01*
X16198919Y35852905D01*
X16254386Y35993557D01*
X16264999Y36081936D01*
X16265000Y36081942D01*
X16265000Y36224999D01*
X16264999Y36225000D01*
X15390001Y36225000D01*
X15390000Y36224999D01*
X15090000Y36224999D01*
X15089999Y36225000D01*
X14215001Y36225000D01*
X14215000Y36224999D01*
X13949582Y36224999D01*
X13986536Y36273159D01*
X14047044Y36419238D01*
X14052684Y36462080D01*
X14079023Y36517303D01*
X14132793Y36546499D01*
X14193455Y36538514D01*
X14212578Y36525000D01*
X15089999Y36525000D01*
X15090000Y36525001D01*
X15090000Y37174999D01*
X15390000Y37174999D01*
X15390000Y36525001D01*
X15390001Y36525000D01*
X16264999Y36525000D01*
X16265000Y36525001D01*
X16265000Y36668059D01*
X16264999Y36668065D01*
X16254386Y36756444D01*
X16198919Y36897096D01*
X16107564Y37017565D01*
X15987095Y37108920D01*
X15846443Y37164387D01*
X15758064Y37175000D01*
X15390001Y37175000D01*
X15390000Y37174999D01*
X15090000Y37174999D01*
X15089999Y37175000D01*
X14721935Y37175000D01*
X14633556Y37164387D01*
X14492904Y37108920D01*
X14372435Y37017565D01*
X14281077Y36897093D01*
X14223580Y36751289D01*
X14184644Y36704092D01*
X14125401Y36688795D01*
X14068482Y36711241D01*
X14040019Y36749722D01*
X13999360Y36847881D01*
X13986536Y36878841D01*
X13901975Y36989043D01*
X13890286Y37004277D01*
X13890285Y37004278D01*
X13890282Y37004282D01*
X13890277Y37004286D01*
X13890276Y37004287D01*
X13800375Y37073270D01*
X13764841Y37100536D01*
X13764840Y37100537D01*
X13764838Y37100538D01*
X13618766Y37161043D01*
X13618758Y37161045D01*
X13462001Y37181682D01*
X13461998Y37181682D01*
X13420566Y37176228D01*
X13382023Y37178754D01*
X13364309Y37183500D01*
X12957500Y37183500D01*
X12899309Y37202407D01*
X12863345Y37251907D01*
X12858500Y37282500D01*
X12858500Y37374773D01*
X12858499Y37374775D01*
X12855646Y37405200D01*
X12850912Y37418728D01*
X12840276Y37449122D01*
X12838903Y37510289D01*
X12873747Y37560584D01*
X12931498Y37580793D01*
X12966418Y37575263D01*
X12973301Y37572854D01*
X13003725Y37570001D01*
X13003727Y37570000D01*
X13003734Y37570000D01*
X13412273Y37570000D01*
X13412273Y37570001D01*
X13442699Y37572854D01*
X13570882Y37617707D01*
X13680150Y37698350D01*
X13760793Y37807618D01*
X13805646Y37935801D01*
X13808499Y37966227D01*
X13808500Y37966227D01*
X13808500Y39249773D01*
X13808499Y39249775D01*
X13805646Y39280195D01*
X13805646Y39280199D01*
X13760793Y39408382D01*
X13758500Y39411489D01*
X13677845Y39520774D01*
X13658503Y39578822D01*
X13658500Y39579562D01*
X13658500Y40513268D01*
X13677407Y40571459D01*
X13719614Y40604731D01*
X13764841Y40623464D01*
X13890282Y40719718D01*
X13986536Y40845159D01*
X14047044Y40991238D01*
X14067682Y41148000D01*
X14047044Y41304762D01*
X14038240Y41326017D01*
X14022501Y41364015D01*
X14017700Y41425011D01*
X14049670Y41477180D01*
X14106198Y41500595D01*
X14113965Y41500900D01*
X16399769Y41500900D01*
X16457960Y41481993D01*
X16493213Y41434598D01*
X16531207Y41326017D01*
X16614155Y41213626D01*
X16633497Y41155578D01*
X16633500Y41154838D01*
X16633500Y40672962D01*
X16614593Y40614771D01*
X16614155Y40614174D01*
X16531207Y40501784D01*
X16486355Y40373604D01*
X16486353Y40373595D01*
X16483500Y40343175D01*
X16483500Y40325900D01*
X16464593Y40267709D01*
X16415093Y40231745D01*
X16384500Y40226900D01*
X15841091Y40226900D01*
X15726514Y40196199D01*
X15623786Y40136890D01*
X14879508Y39392611D01*
X14879507Y39392610D01*
X14820200Y39289888D01*
X14820200Y39289887D01*
X14820201Y39289886D01*
X14798698Y39209634D01*
X14789500Y39175308D01*
X14789500Y39171442D01*
X14770593Y39113251D01*
X14721093Y39077287D01*
X14702305Y39073148D01*
X14633433Y39064877D01*
X14492660Y39009363D01*
X14492656Y39009360D01*
X14372081Y38917925D01*
X14372075Y38917919D01*
X14280640Y38797344D01*
X14280637Y38797340D01*
X14225123Y38656566D01*
X14214500Y38568107D01*
X14214500Y37981894D01*
X14225123Y37893435D01*
X14280637Y37752661D01*
X14280638Y37752659D01*
X14280639Y37752658D01*
X14372078Y37632078D01*
X14492658Y37540639D01*
X14492659Y37540639D01*
X14492660Y37540638D01*
X14511060Y37533382D01*
X14633436Y37485123D01*
X14721898Y37474500D01*
X14721900Y37474500D01*
X15758100Y37474500D01*
X15758102Y37474500D01*
X15846564Y37485123D01*
X15987342Y37540639D01*
X16107922Y37632078D01*
X16199361Y37752658D01*
X16254877Y37893436D01*
X16265500Y37981898D01*
X16265500Y38568102D01*
X16254877Y38656564D01*
X16199361Y38797342D01*
X16107922Y38917922D01*
X15987342Y39009361D01*
X15987341Y39009362D01*
X15972213Y39015327D01*
X15925016Y39054264D01*
X15909720Y39113506D01*
X15932167Y39170426D01*
X15938515Y39177413D01*
X16058008Y39296904D01*
X16112525Y39324681D01*
X16128011Y39325900D01*
X16384500Y39325900D01*
X16442691Y39306993D01*
X16478655Y39257493D01*
X16483500Y39226900D01*
X16483500Y39209626D01*
X16486353Y39179206D01*
X16486355Y39179197D01*
X16531207Y39051017D01*
X16611845Y38941756D01*
X16611847Y38941754D01*
X16611850Y38941750D01*
X16611853Y38941748D01*
X16611855Y38941746D01*
X16721116Y38861108D01*
X16721117Y38861108D01*
X16721118Y38861107D01*
X16849301Y38816254D01*
X16879725Y38813401D01*
X16879727Y38813400D01*
X16879734Y38813400D01*
X17288273Y38813400D01*
X17288273Y38813401D01*
X17318699Y38816254D01*
X17446882Y38861107D01*
X17500634Y38900778D01*
X17558680Y38920119D01*
X17617010Y38901648D01*
X17618210Y38900777D01*
X17671352Y38861555D01*
X17799399Y38816751D01*
X17829788Y38813901D01*
X17883999Y38813902D01*
X17884000Y38813902D01*
X17884000Y40738901D01*
X17829796Y40738900D01*
X17799399Y40736050D01*
X17799397Y40736050D01*
X17666197Y40689441D01*
X17605027Y40688069D01*
X17554733Y40722913D01*
X17534525Y40780665D01*
X17534500Y40782886D01*
X17534500Y41044385D01*
X17553407Y41102576D01*
X17602907Y41138540D01*
X17664093Y41138540D01*
X17666198Y41137829D01*
X17671116Y41136108D01*
X17671118Y41136107D01*
X17799301Y41091254D01*
X17829725Y41088401D01*
X17829727Y41088400D01*
X17829734Y41088400D01*
X18238273Y41088400D01*
X18238273Y41088401D01*
X18268699Y41091254D01*
X18396882Y41136107D01*
X18450212Y41175466D01*
X18508259Y41194808D01*
X18566590Y41176337D01*
X18567788Y41175466D01*
X18621116Y41136108D01*
X18621117Y41136108D01*
X18621118Y41136107D01*
X18749301Y41091254D01*
X18779725Y41088401D01*
X18779727Y41088400D01*
X18779734Y41088400D01*
X19188273Y41088400D01*
X19188273Y41088401D01*
X19218699Y41091254D01*
X19346882Y41136107D01*
X19456150Y41216750D01*
X19536793Y41326018D01*
X19574787Y41434598D01*
X19611852Y41483278D01*
X19668231Y41500900D01*
X20106125Y41500900D01*
X20954367Y41500900D01*
X21012558Y41481993D01*
X21024371Y41471904D01*
X21264504Y41231771D01*
X21292281Y41177254D01*
X21293500Y41161767D01*
X21293500Y26939033D01*
X21274593Y26880842D01*
X21264504Y26869029D01*
X16554971Y22159496D01*
X16500454Y22131719D01*
X16484967Y22130500D01*
X5187223Y22130500D01*
X5129032Y22149407D01*
X5098604Y22185368D01*
X5097170Y22188246D01*
X5097169Y22188248D01*
X5097166Y22188255D01*
X4968672Y22358407D01*
X4914423Y22407861D01*
X4811107Y22502048D01*
X4811100Y22502054D01*
X4629824Y22614295D01*
X4629819Y22614298D01*
X4430995Y22691322D01*
X4221410Y22730500D01*
X4008190Y22730500D01*
X3798604Y22691322D01*
X3599780Y22614298D01*
X3599775Y22614295D01*
X3418499Y22502054D01*
X3418492Y22502048D01*
X3260935Y22358414D01*
X3260931Y22358411D01*
X3260928Y22358407D01*
X3260925Y22358403D01*
X3132435Y22188257D01*
X3132430Y22188248D01*
X3037396Y21997392D01*
X2979044Y21792312D01*
X2979044Y21792310D01*
X2959371Y21580000D01*
X2979044Y21367690D01*
X3037395Y21162611D01*
X3132434Y20971745D01*
X3260928Y20801593D01*
X3260935Y20801587D01*
X3418492Y20657953D01*
X3418499Y20657947D01*
X3522189Y20593745D01*
X3599781Y20545702D01*
X3798602Y20468679D01*
X4008190Y20429500D01*
X4221410Y20429500D01*
X4430998Y20468679D01*
X4629819Y20545702D01*
X4811102Y20657948D01*
X4968672Y20801593D01*
X5097166Y20971745D01*
X5098604Y20974632D01*
X5099548Y20975594D01*
X5099575Y20975637D01*
X5099584Y20975631D01*
X5141469Y21018293D01*
X5187223Y21029500D01*
X16826474Y21029500D01*
X16826475Y21029500D01*
X16966485Y21067016D01*
X16971153Y21069711D01*
X17092015Y21139490D01*
X17532525Y21580000D01*
X25824571Y21580000D01*
X25844244Y21367690D01*
X25902595Y21162611D01*
X25997634Y20971745D01*
X26126128Y20801593D01*
X26126135Y20801587D01*
X26283692Y20657953D01*
X26283699Y20657947D01*
X26387389Y20593745D01*
X26464981Y20545702D01*
X26663802Y20468679D01*
X26873390Y20429500D01*
X27086610Y20429500D01*
X27296198Y20468679D01*
X27495019Y20545702D01*
X27676302Y20657948D01*
X27833872Y20801593D01*
X27962366Y20971745D01*
X28057405Y21162611D01*
X28115756Y21367690D01*
X28135429Y21580000D01*
X28115756Y21792310D01*
X28057405Y21997389D01*
X27962366Y22188255D01*
X27833872Y22358407D01*
X27779623Y22407861D01*
X27676307Y22502048D01*
X27676300Y22502054D01*
X27495024Y22614295D01*
X27495019Y22614298D01*
X27296195Y22691322D01*
X27086610Y22730500D01*
X26873390Y22730500D01*
X26663804Y22691322D01*
X26464980Y22614298D01*
X26464975Y22614295D01*
X26283699Y22502054D01*
X26283692Y22502048D01*
X26126135Y22358414D01*
X26126131Y22358411D01*
X26126128Y22358407D01*
X26126125Y22358403D01*
X25997635Y22188257D01*
X25997630Y22188248D01*
X25902596Y21997392D01*
X25844244Y21792312D01*
X25844244Y21792310D01*
X25824571Y21580000D01*
X17532525Y21580000D01*
X20072525Y24120000D01*
X25824571Y24120000D01*
X25844244Y23907690D01*
X25902595Y23702611D01*
X25997634Y23511745D01*
X26126128Y23341593D01*
X26126135Y23341587D01*
X26283692Y23197953D01*
X26283699Y23197947D01*
X26387389Y23133745D01*
X26464981Y23085702D01*
X26663802Y23008679D01*
X26873390Y22969500D01*
X27086610Y22969500D01*
X27296198Y23008679D01*
X27495019Y23085702D01*
X27676302Y23197948D01*
X27833872Y23341593D01*
X27962366Y23511745D01*
X28057405Y23702611D01*
X28115756Y23907690D01*
X28135429Y24120000D01*
X28115756Y24332310D01*
X28057405Y24537389D01*
X27962366Y24728255D01*
X27833872Y24898407D01*
X27779623Y24947861D01*
X27676307Y25042048D01*
X27676300Y25042054D01*
X27495024Y25154295D01*
X27495019Y25154298D01*
X27296198Y25231321D01*
X27296197Y25231322D01*
X27296195Y25231322D01*
X27086610Y25270500D01*
X26873390Y25270500D01*
X26663804Y25231322D01*
X26464980Y25154298D01*
X26464975Y25154295D01*
X26283699Y25042054D01*
X26283692Y25042048D01*
X26126135Y24898414D01*
X26126131Y24898411D01*
X26126128Y24898407D01*
X26126125Y24898403D01*
X25997635Y24728257D01*
X25997630Y24728248D01*
X25902596Y24537392D01*
X25902595Y24537389D01*
X25890655Y24495426D01*
X25844244Y24332312D01*
X25824571Y24120000D01*
X20072525Y24120000D01*
X22284510Y26331985D01*
X22356984Y26457515D01*
X22394500Y26597526D01*
X22394500Y26660000D01*
X25824571Y26660000D01*
X25843333Y26457516D01*
X25844244Y26447690D01*
X25902595Y26242611D01*
X25997634Y26051745D01*
X26126128Y25881593D01*
X26126135Y25881587D01*
X26283692Y25737953D01*
X26283699Y25737947D01*
X26387389Y25673745D01*
X26464981Y25625702D01*
X26663802Y25548679D01*
X26873390Y25509500D01*
X27086610Y25509500D01*
X27296198Y25548679D01*
X27495019Y25625702D01*
X27676302Y25737948D01*
X27833872Y25881593D01*
X27962366Y26051745D01*
X28057405Y26242611D01*
X28115756Y26447690D01*
X28135429Y26660000D01*
X28115756Y26872310D01*
X28057405Y27077389D01*
X27962366Y27268255D01*
X27833872Y27438407D01*
X27779623Y27487861D01*
X27676307Y27582048D01*
X27676300Y27582054D01*
X27495024Y27694295D01*
X27495019Y27694298D01*
X27296195Y27771322D01*
X27086610Y27810500D01*
X26873390Y27810500D01*
X26663804Y27771322D01*
X26464980Y27694298D01*
X26464975Y27694295D01*
X26283699Y27582054D01*
X26283692Y27582048D01*
X26126135Y27438414D01*
X26126131Y27438411D01*
X26126128Y27438407D01*
X26126125Y27438403D01*
X25997635Y27268257D01*
X25997630Y27268248D01*
X25902596Y27077392D01*
X25844244Y26872312D01*
X25824571Y26660000D01*
X22394500Y26660000D01*
X22394500Y26742474D01*
X22394500Y36576001D01*
X23295718Y36576001D01*
X23295718Y36576000D01*
X23316355Y36419242D01*
X23316357Y36419234D01*
X23376862Y36273162D01*
X23376862Y36273161D01*
X23473113Y36147724D01*
X23473118Y36147718D01*
X23598559Y36051464D01*
X23598560Y36051464D01*
X23598561Y36051463D01*
X23744633Y35990958D01*
X23744638Y35990956D01*
X23872612Y35974108D01*
X23924538Y35949342D01*
X23924787Y35949666D01*
X23926312Y35948496D01*
X23927836Y35947769D01*
X23929654Y35945998D01*
X23929937Y35945715D01*
X23929939Y35945714D01*
X24026959Y35889699D01*
X24026957Y35889699D01*
X24026961Y35889698D01*
X24026963Y35889697D01*
X24135182Y35860700D01*
X27548527Y35860700D01*
X27606718Y35841793D01*
X27642682Y35792293D01*
X27647421Y35766271D01*
X27647802Y35758017D01*
X27647802Y35758014D01*
X27647803Y35758012D01*
X27652158Y35742707D01*
X27673400Y35668050D01*
X27671139Y35606906D01*
X27670300Y35605167D01*
X27670443Y35605111D01*
X27667129Y35596558D01*
X27646500Y35486201D01*
X27646500Y34914307D01*
X27658874Y34828245D01*
X27658875Y34828241D01*
X27699380Y34690293D01*
X27699382Y34690287D01*
X27701079Y34686572D01*
X27735505Y34611189D01*
X27735509Y34611182D01*
X27813230Y34490245D01*
X27813239Y34490233D01*
X27870169Y34424532D01*
X27870186Y34424514D01*
X27978836Y34330369D01*
X27978849Y34330360D01*
X28051980Y34283362D01*
X28051982Y34283361D01*
X28051990Y34283356D01*
X28182775Y34223628D01*
X28195427Y34219913D01*
X28205392Y34216987D01*
X28255898Y34182451D01*
X28276460Y34124824D01*
X28276500Y34121997D01*
X28276500Y32399056D01*
X28257593Y32340865D01*
X28247504Y32329052D01*
X28122948Y32204496D01*
X28068431Y32176719D01*
X28052944Y32175500D01*
X27955552Y32175500D01*
X27897361Y32194407D01*
X27863455Y32238180D01*
X27853615Y32263132D01*
X27853613Y32263134D01*
X27804353Y32328093D01*
X27767367Y32376867D01*
X27653632Y32463115D01*
X27653631Y32463116D01*
X27653629Y32463117D01*
X27520848Y32515479D01*
X27437404Y32525500D01*
X27437402Y32525500D01*
X26918598Y32525500D01*
X26918595Y32525500D01*
X26835151Y32515479D01*
X26702370Y32463117D01*
X26702366Y32463114D01*
X26588636Y32376870D01*
X26588630Y32376864D01*
X26502386Y32263134D01*
X26502383Y32263130D01*
X26482597Y32212954D01*
X26443661Y32165757D01*
X26384418Y32150460D01*
X26327499Y32172906D01*
X26298403Y32212954D01*
X26278616Y32263130D01*
X26278615Y32263131D01*
X26278615Y32263132D01*
X26192367Y32376867D01*
X26078632Y32463115D01*
X26078631Y32463116D01*
X26078629Y32463117D01*
X25945848Y32515479D01*
X25862404Y32525500D01*
X25862402Y32525500D01*
X25343598Y32525500D01*
X25343595Y32525500D01*
X25260151Y32515479D01*
X25127370Y32463117D01*
X25127366Y32463114D01*
X25013636Y32376870D01*
X25013630Y32376864D01*
X24927386Y32263134D01*
X24927383Y32263130D01*
X24875021Y32130349D01*
X24865000Y32046905D01*
X24865000Y31453096D01*
X24875021Y31369652D01*
X24927383Y31236871D01*
X24927386Y31236867D01*
X24969884Y31180825D01*
X24989979Y31123034D01*
X24990000Y31121006D01*
X24990000Y30778401D01*
X24971093Y30720210D01*
X24927320Y30686304D01*
X24905658Y30677762D01*
X24785081Y30586325D01*
X24785075Y30586319D01*
X24693640Y30465744D01*
X24693637Y30465740D01*
X24638123Y30324966D01*
X24627500Y30236507D01*
X24627500Y29250294D01*
X24638123Y29161835D01*
X24693637Y29021061D01*
X24693638Y29021059D01*
X24693639Y29021058D01*
X24785078Y28900478D01*
X24905658Y28809039D01*
X24905659Y28809039D01*
X24905660Y28809038D01*
X24976047Y28781281D01*
X25046436Y28753523D01*
X25134898Y28742900D01*
X25134900Y28742900D01*
X25746100Y28742900D01*
X25746102Y28742900D01*
X25834564Y28753523D01*
X25975342Y28809039D01*
X26095922Y28900478D01*
X26187361Y29021058D01*
X26242877Y29161836D01*
X26253500Y29250298D01*
X26253500Y29593399D01*
X26453000Y29593399D01*
X26453000Y29250336D01*
X26463613Y29161957D01*
X26519080Y29021305D01*
X26610435Y28900836D01*
X26730904Y28809481D01*
X26871556Y28754014D01*
X26959935Y28743401D01*
X26959942Y28743400D01*
X27115499Y28743400D01*
X27115500Y28743401D01*
X27115500Y29593399D01*
X27415500Y29593399D01*
X27415500Y28743401D01*
X27415501Y28743400D01*
X27571058Y28743400D01*
X27571064Y28743401D01*
X27659443Y28754014D01*
X27800095Y28809481D01*
X27920564Y28900836D01*
X28011919Y29021305D01*
X28067386Y29161957D01*
X28077999Y29250336D01*
X28078000Y29250342D01*
X28078000Y29593399D01*
X28077999Y29593400D01*
X27415501Y29593400D01*
X27415500Y29593399D01*
X27115500Y29593399D01*
X27115499Y29593400D01*
X26453001Y29593400D01*
X26453000Y29593399D01*
X26253500Y29593399D01*
X26253500Y30236465D01*
X26453000Y30236465D01*
X26453000Y29893401D01*
X26453001Y29893400D01*
X27115499Y29893400D01*
X27115500Y29893401D01*
X27115500Y30743399D01*
X27415500Y30743399D01*
X27415500Y29893401D01*
X27415501Y29893400D01*
X28077999Y29893400D01*
X28078000Y29893401D01*
X28078000Y30236459D01*
X28077999Y30236465D01*
X28067386Y30324844D01*
X28011919Y30465496D01*
X27920564Y30585965D01*
X27800095Y30677320D01*
X27659443Y30732787D01*
X27571064Y30743400D01*
X27415501Y30743400D01*
X27415500Y30743399D01*
X27115500Y30743399D01*
X27115499Y30743400D01*
X26959935Y30743400D01*
X26871556Y30732787D01*
X26730904Y30677320D01*
X26610435Y30585965D01*
X26519080Y30465496D01*
X26463613Y30324844D01*
X26453000Y30236465D01*
X26253500Y30236465D01*
X26253500Y30236502D01*
X26242877Y30324964D01*
X26187361Y30465742D01*
X26095922Y30586322D01*
X25975342Y30677761D01*
X25975341Y30677762D01*
X25953680Y30686304D01*
X25906483Y30725242D01*
X25891000Y30778401D01*
X25891000Y30895514D01*
X25909907Y30953705D01*
X25953679Y30987611D01*
X26078632Y31036885D01*
X26192367Y31123133D01*
X26278615Y31236868D01*
X26298403Y31287050D01*
X26337339Y31334244D01*
X26396581Y31349541D01*
X26453501Y31327095D01*
X26482595Y31287051D01*
X26502384Y31236871D01*
X26502386Y31236866D01*
X26544884Y31180825D01*
X26588633Y31123133D01*
X26702368Y31036885D01*
X26702369Y31036885D01*
X26702370Y31036884D01*
X26835151Y30984522D01*
X26835154Y30984521D01*
X26918598Y30974500D01*
X26918600Y30974500D01*
X27437400Y30974500D01*
X27437402Y30974500D01*
X27520846Y30984521D01*
X27653632Y31036885D01*
X27767367Y31123133D01*
X27853615Y31236868D01*
X27863455Y31261820D01*
X27902392Y31309017D01*
X27955552Y31324500D01*
X28326216Y31324500D01*
X28326218Y31324500D01*
X28434437Y31353497D01*
X28434439Y31353499D01*
X28434441Y31353499D01*
X28463264Y31370141D01*
X28531463Y31409515D01*
X29042484Y31920536D01*
X29042843Y31921158D01*
X29098501Y32017559D01*
X29098501Y32017561D01*
X29098503Y32017563D01*
X29127500Y32125781D01*
X29127500Y32237818D01*
X29127500Y34121997D01*
X29146407Y34180188D01*
X29195907Y34216152D01*
X29198608Y34216987D01*
X29198975Y34217096D01*
X29221225Y34223628D01*
X29352010Y34283356D01*
X29425158Y34330365D01*
X29533819Y34424519D01*
X29590764Y34490237D01*
X29668496Y34611191D01*
X29704618Y34690287D01*
X29745125Y34828242D01*
X29750428Y34865129D01*
X29757500Y34914307D01*
X29757500Y35486205D01*
X29756197Y35514384D01*
X29756197Y35514388D01*
X29730600Y35604351D01*
X29732860Y35665494D01*
X29733714Y35667229D01*
X29733557Y35667290D01*
X29736871Y35675844D01*
X29757500Y35786200D01*
X29757500Y36358094D01*
X29745125Y36444156D01*
X29745124Y36444160D01*
X29704618Y36582113D01*
X29668496Y36661209D01*
X29664090Y36668065D01*
X29590769Y36782156D01*
X29590760Y36782168D01*
X29533830Y36847869D01*
X29533813Y36847887D01*
X29425163Y36942032D01*
X29425150Y36942041D01*
X29352019Y36989039D01*
X29352013Y36989042D01*
X29352010Y36989044D01*
X29263536Y37029449D01*
X29221219Y37048775D01*
X29137794Y37073270D01*
X29137789Y37073271D01*
X28995476Y37093733D01*
X28908524Y37093733D01*
X28901391Y37092708D01*
X28887304Y37091700D01*
X28516696Y37091700D01*
X28502608Y37092708D01*
X28495476Y37093733D01*
X28495475Y37093733D01*
X28408522Y37093733D01*
X28266210Y37073271D01*
X28266205Y37073270D01*
X28182780Y37048775D01*
X28051988Y36989043D01*
X28051980Y36989039D01*
X27978849Y36942041D01*
X27978836Y36942032D01*
X27870186Y36847887D01*
X27870169Y36847869D01*
X27813245Y36782175D01*
X27813234Y36782160D01*
X27797177Y36757175D01*
X27749811Y36718445D01*
X27713894Y36711700D01*
X24561318Y36711700D01*
X24503127Y36730607D01*
X24469854Y36772814D01*
X24438760Y36847881D01*
X24425936Y36878841D01*
X24341375Y36989043D01*
X24329686Y37004277D01*
X24329685Y37004278D01*
X24329682Y37004282D01*
X24329677Y37004286D01*
X24329676Y37004287D01*
X24239775Y37073270D01*
X24204241Y37100536D01*
X24204240Y37100537D01*
X24204238Y37100538D01*
X24058166Y37161043D01*
X24058158Y37161045D01*
X23901401Y37181682D01*
X23901399Y37181682D01*
X23744641Y37161045D01*
X23744633Y37161043D01*
X23598561Y37100538D01*
X23598560Y37100538D01*
X23473123Y37004287D01*
X23473113Y37004277D01*
X23376862Y36878840D01*
X23376862Y36878839D01*
X23316357Y36732767D01*
X23316355Y36732759D01*
X23295718Y36576001D01*
X22394500Y36576001D01*
X22394500Y39169199D01*
X25290600Y39169199D01*
X25290600Y38026136D01*
X25301213Y37937757D01*
X25356680Y37797105D01*
X25448035Y37676636D01*
X25568504Y37585281D01*
X25709156Y37529814D01*
X25797535Y37519201D01*
X25797542Y37519200D01*
X26240599Y37519200D01*
X26240600Y37519201D01*
X26240600Y39169199D01*
X26540600Y39169199D01*
X26540600Y37519201D01*
X26540601Y37519200D01*
X26983658Y37519200D01*
X26983664Y37519201D01*
X27072043Y37529814D01*
X27212695Y37585281D01*
X27333164Y37676636D01*
X27424519Y37797105D01*
X27479986Y37937757D01*
X27490599Y38026136D01*
X27490600Y38026142D01*
X27490600Y39169199D01*
X27490599Y39169200D01*
X26540601Y39169200D01*
X26540600Y39169199D01*
X26240600Y39169199D01*
X26240599Y39169200D01*
X25290601Y39169200D01*
X25290600Y39169199D01*
X22394500Y39169199D01*
X22394500Y40612265D01*
X25290600Y40612265D01*
X25290600Y39469201D01*
X25290601Y39469200D01*
X26240599Y39469200D01*
X26240600Y39469201D01*
X26240600Y41119199D01*
X26540600Y41119199D01*
X26540600Y39469201D01*
X26540601Y39469200D01*
X27490599Y39469200D01*
X27490600Y39469201D01*
X27490600Y40612259D01*
X27490599Y40612265D01*
X27479986Y40700644D01*
X27424519Y40841296D01*
X27333164Y40961765D01*
X27212695Y41053120D01*
X27072043Y41108587D01*
X26983664Y41119200D01*
X26540601Y41119200D01*
X26540600Y41119199D01*
X26240600Y41119199D01*
X26240599Y41119200D01*
X25797535Y41119200D01*
X25709156Y41108587D01*
X25568504Y41053120D01*
X25448035Y40961765D01*
X25356680Y40841296D01*
X25301213Y40700644D01*
X25290600Y40612265D01*
X22394500Y40612265D01*
X22394500Y41503275D01*
X22356984Y41643285D01*
X22316512Y41713385D01*
X22284510Y41768815D01*
X22071926Y41981399D01*
X22044151Y42035913D01*
X22053722Y42096345D01*
X22071925Y42121401D01*
X23084429Y43133904D01*
X23138946Y43161681D01*
X23154433Y43162900D01*
X25191100Y43162900D01*
X25249291Y43143993D01*
X25285255Y43094493D01*
X25290100Y43063900D01*
X25290100Y42426094D01*
X25300723Y42337635D01*
X25356237Y42196861D01*
X25356238Y42196859D01*
X25356239Y42196858D01*
X25447678Y42076278D01*
X25568258Y41984839D01*
X25568259Y41984839D01*
X25568260Y41984838D01*
X25638647Y41957081D01*
X25709036Y41929323D01*
X25797498Y41918700D01*
X25797500Y41918700D01*
X26983700Y41918700D01*
X26983702Y41918700D01*
X27072164Y41929323D01*
X27212942Y41984839D01*
X27333522Y42076278D01*
X27424961Y42196858D01*
X27480477Y42337636D01*
X27491100Y42426098D01*
X27491100Y45012302D01*
X27480477Y45100764D01*
X27424961Y45241542D01*
X27333522Y45362122D01*
X27212942Y45453561D01*
X27212941Y45453562D01*
X27212939Y45453563D01*
X27072165Y45509077D01*
X26983706Y45519700D01*
X26983702Y45519700D01*
X25797498Y45519700D01*
X25797493Y45519700D01*
X25709034Y45509077D01*
X25568260Y45453563D01*
X25568256Y45453560D01*
X25447681Y45362125D01*
X25447675Y45362119D01*
X25356240Y45241544D01*
X25356237Y45241540D01*
X25300723Y45100766D01*
X25290100Y45012307D01*
X25290100Y44362900D01*
X25271193Y44304709D01*
X25221693Y44268745D01*
X25191100Y44263900D01*
X22812925Y44263900D01*
X22672915Y44226384D01*
X22547385Y44153910D01*
X21024371Y42630896D01*
X20969854Y42603119D01*
X20954367Y42601900D01*
X19668231Y42601900D01*
X19610040Y42620807D01*
X19574787Y42668202D01*
X19542257Y42761167D01*
X19536793Y42776782D01*
X19536792Y42776784D01*
X19453845Y42889174D01*
X19434503Y42947222D01*
X19434500Y42947962D01*
X19434500Y43284445D01*
X19453407Y43342636D01*
X19502907Y43378600D01*
X19521696Y43382739D01*
X19531564Y43383923D01*
X19672342Y43439439D01*
X19792922Y43530878D01*
X19884361Y43651458D01*
X19939877Y43792236D01*
X19950500Y43880698D01*
X19950500Y44866902D01*
X19939877Y44955364D01*
X19884361Y45096142D01*
X19792922Y45216722D01*
X19672342Y45308161D01*
X19672341Y45308162D01*
X19672339Y45308163D01*
X19531565Y45363677D01*
X19443106Y45374300D01*
X19443102Y45374300D01*
X18831898Y45374300D01*
X18831893Y45374300D01*
X18743434Y45363677D01*
X18602660Y45308163D01*
X18602656Y45308160D01*
X18482081Y45216725D01*
X18482075Y45216719D01*
X18390640Y45096144D01*
X18390637Y45096140D01*
X18335123Y44955366D01*
X18324500Y44866907D01*
X18324500Y43880694D01*
X18335123Y43792235D01*
X18390637Y43651461D01*
X18390638Y43651459D01*
X18390639Y43651458D01*
X18482078Y43530878D01*
X18494319Y43521596D01*
X18529261Y43471371D01*
X18533500Y43442712D01*
X18533500Y43323560D01*
X18514593Y43265369D01*
X18465093Y43229405D01*
X18403907Y43229405D01*
X18364498Y43253555D01*
X18078652Y43539401D01*
X18050877Y43593915D01*
X18056561Y43645721D01*
X18114385Y43792354D01*
X18124999Y43880736D01*
X18125000Y43880742D01*
X18125000Y44223799D01*
X18124999Y44223800D01*
X16500001Y44223800D01*
X16500000Y44223799D01*
X16500000Y43880736D01*
X16510614Y43792356D01*
X16518497Y43772364D01*
X16522253Y43711294D01*
X16489396Y43659679D01*
X16432476Y43637235D01*
X16373235Y43652534D01*
X16366152Y43657491D01*
X16304841Y43704536D01*
X16304838Y43704537D01*
X16304836Y43704539D01*
X16158766Y43765043D01*
X16158758Y43765045D01*
X16002001Y43785682D01*
X16001999Y43785682D01*
X15845241Y43765045D01*
X15845233Y43765043D01*
X15699161Y43704538D01*
X15699160Y43704538D01*
X15573723Y43608287D01*
X15573713Y43608277D01*
X15477462Y43482840D01*
X15477462Y43482839D01*
X15416957Y43336767D01*
X15416955Y43336759D01*
X15396318Y43180001D01*
X15396318Y43180000D01*
X15416955Y43023242D01*
X15416957Y43023234D01*
X15477462Y42877162D01*
X15477462Y42877161D01*
X15566467Y42761167D01*
X15586891Y42703491D01*
X15569513Y42644825D01*
X15520971Y42607578D01*
X15487925Y42601900D01*
X13227900Y42601900D01*
X13169709Y42620807D01*
X13133745Y42670307D01*
X13128900Y42700900D01*
X13128900Y44866865D01*
X16500000Y44866865D01*
X16500000Y44523801D01*
X16500001Y44523800D01*
X17162499Y44523800D01*
X17162500Y44523801D01*
X17162500Y45373799D01*
X17462500Y45373799D01*
X17462500Y44523801D01*
X17462501Y44523800D01*
X18124999Y44523800D01*
X18125000Y44523801D01*
X18125000Y44866859D01*
X18124999Y44866865D01*
X18114386Y44955244D01*
X18058919Y45095896D01*
X17967564Y45216365D01*
X17847095Y45307720D01*
X17706443Y45363187D01*
X17618064Y45373800D01*
X17462501Y45373800D01*
X17462500Y45373799D01*
X17162500Y45373799D01*
X17162499Y45373800D01*
X17006935Y45373800D01*
X16918556Y45363187D01*
X16777904Y45307720D01*
X16657435Y45216365D01*
X16566080Y45095896D01*
X16510613Y44955244D01*
X16500000Y44866865D01*
X13128900Y44866865D01*
X13128900Y48767729D01*
X13147807Y48825920D01*
X13175779Y48851898D01*
X13274702Y48913148D01*
X13432272Y49056793D01*
X13560766Y49226945D01*
X13655805Y49417811D01*
X13714156Y49622890D01*
X13733829Y49835200D01*
X13714156Y50047510D01*
X13655805Y50252589D01*
X13560766Y50443455D01*
X13432272Y50613607D01*
X13304519Y50730070D01*
X13967900Y50730070D01*
X13967900Y48940340D01*
X13967901Y48940337D01*
X13970814Y48915210D01*
X13996156Y48857815D01*
X14016194Y48812435D01*
X14095635Y48732994D01*
X14198409Y48687615D01*
X14223535Y48684700D01*
X16013264Y48684701D01*
X16038391Y48687615D01*
X16141165Y48732994D01*
X16220606Y48812435D01*
X16265985Y48915209D01*
X16268900Y48940335D01*
X16268900Y49185700D01*
X16287807Y49243891D01*
X16337307Y49279855D01*
X16367900Y49284700D01*
X18934664Y49284700D01*
X18992855Y49265793D01*
X18994930Y49264243D01*
X19001157Y49259465D01*
X19001161Y49259463D01*
X19079669Y49226944D01*
X19147238Y49198956D01*
X19247928Y49185700D01*
X19303999Y49178318D01*
X19304000Y49178318D01*
X19304001Y49178318D01*
X19335352Y49182446D01*
X19460762Y49198956D01*
X19606841Y49259464D01*
X19732282Y49355718D01*
X19828536Y49481159D01*
X19889044Y49627238D01*
X19909682Y49784000D01*
X19909028Y49788964D01*
X19889044Y49940759D01*
X19889044Y49940762D01*
X19850530Y50033742D01*
X19828537Y50086839D01*
X19828537Y50086840D01*
X19732286Y50212277D01*
X19732285Y50212278D01*
X19732282Y50212282D01*
X19732277Y50212286D01*
X19732276Y50212287D01*
X19661104Y50266899D01*
X19641548Y50281905D01*
X26120885Y50281905D01*
X26120885Y50033742D01*
X26154015Y49835200D01*
X26161731Y49788964D01*
X26217250Y49627242D01*
X26242310Y49554244D01*
X26360421Y49335995D01*
X26360423Y49335992D01*
X26416268Y49264243D01*
X26512846Y49140160D01*
X26695425Y48972084D01*
X26695427Y48972083D01*
X26695429Y48972081D01*
X26903173Y48836355D01*
X26903178Y48836352D01*
X27130439Y48736666D01*
X27371008Y48675746D01*
X27618323Y48655252D01*
X27865638Y48675746D01*
X28106207Y48736666D01*
X28333468Y48836352D01*
X28541221Y48972084D01*
X28723800Y49140160D01*
X28876225Y49335995D01*
X28994337Y49554247D01*
X29074915Y49788964D01*
X29115761Y50033742D01*
X29118323Y50157823D01*
X29115761Y50281904D01*
X29074915Y50526682D01*
X28994337Y50761399D01*
X28876225Y50979651D01*
X28723800Y51175486D01*
X28541221Y51343562D01*
X28541218Y51343564D01*
X28541216Y51343566D01*
X28333472Y51479292D01*
X28333467Y51479295D01*
X28106207Y51578980D01*
X27865636Y51639901D01*
X27618323Y51660393D01*
X27371009Y51639901D01*
X27130438Y51578980D01*
X26903178Y51479295D01*
X26903173Y51479292D01*
X26695429Y51343566D01*
X26512843Y51175483D01*
X26360423Y50979655D01*
X26360421Y50979652D01*
X26242310Y50761403D01*
X26161730Y50526679D01*
X26120885Y50281905D01*
X19641548Y50281905D01*
X19606841Y50308536D01*
X19606840Y50308537D01*
X19606838Y50308538D01*
X19460766Y50369043D01*
X19460758Y50369045D01*
X19304001Y50389682D01*
X19303999Y50389682D01*
X19280187Y50386547D01*
X19267265Y50385700D01*
X16367899Y50385700D01*
X16309708Y50404607D01*
X16273744Y50454107D01*
X16268899Y50484700D01*
X16268899Y50730061D01*
X16268899Y50730064D01*
X16265985Y50755191D01*
X16220606Y50857965D01*
X16141165Y50937406D01*
X16038391Y50982785D01*
X16038390Y50982786D01*
X16038388Y50982786D01*
X16013268Y50985700D01*
X14223539Y50985700D01*
X14223536Y50985699D01*
X14198409Y50982786D01*
X14095635Y50937406D01*
X14016194Y50857965D01*
X13970814Y50755189D01*
X13967900Y50730070D01*
X13304519Y50730070D01*
X13274707Y50757248D01*
X13274700Y50757254D01*
X13093424Y50869495D01*
X13093419Y50869498D01*
X13030471Y50893884D01*
X12894598Y50946521D01*
X12894597Y50946522D01*
X12894595Y50946522D01*
X12685010Y50985700D01*
X12471790Y50985700D01*
X12262204Y50946522D01*
X12063380Y50869498D01*
X12063375Y50869495D01*
X11882099Y50757254D01*
X11882092Y50757248D01*
X11724535Y50613614D01*
X11724531Y50613611D01*
X11724528Y50613607D01*
X11724525Y50613603D01*
X11596035Y50443457D01*
X11596030Y50443448D01*
X11500996Y50252592D01*
X11442644Y50047512D01*
X11432752Y49940759D01*
X11422971Y49835200D01*
X11442644Y49622890D01*
X11500995Y49417811D01*
X11596034Y49226945D01*
X11724528Y49056793D01*
X11724535Y49056787D01*
X11882092Y48913153D01*
X11882093Y48913153D01*
X11882098Y48913148D01*
X11981019Y48851899D01*
X12020538Y48805192D01*
X12027900Y48767729D01*
X12027900Y42354526D01*
X12030878Y42343413D01*
X12027677Y42282311D01*
X12005256Y42247783D01*
X10368471Y40610996D01*
X10313954Y40583219D01*
X10298467Y40582000D01*
X8559580Y40582000D01*
X8501389Y40600907D01*
X8480699Y40621177D01*
X8440322Y40674422D01*
X8319742Y40765861D01*
X8319741Y40765862D01*
X8319739Y40765863D01*
X8178965Y40821377D01*
X8090506Y40832000D01*
X8090502Y40832000D01*
X3004298Y40832000D01*
X3004293Y40832000D01*
X2915834Y40821377D01*
X2775060Y40765863D01*
X2775056Y40765860D01*
X2654481Y40674425D01*
X2654475Y40674419D01*
X2563040Y40553844D01*
X2563037Y40553840D01*
X2507523Y40413066D01*
X2496900Y40324607D01*
X313323Y40324607D01*
X313323Y41881499D01*
X2497400Y41881499D01*
X2497400Y41738436D01*
X2508013Y41650057D01*
X2563480Y41509405D01*
X2654835Y41388936D01*
X2775304Y41297581D01*
X2915956Y41242114D01*
X3004335Y41231501D01*
X3004342Y41231500D01*
X5397399Y41231500D01*
X5397400Y41231501D01*
X5397400Y41881499D01*
X5697400Y41881499D01*
X5697400Y41231501D01*
X5697401Y41231500D01*
X8090458Y41231500D01*
X8090464Y41231501D01*
X8178843Y41242114D01*
X8319495Y41297581D01*
X8439964Y41388936D01*
X8531319Y41509405D01*
X8586786Y41650057D01*
X8597399Y41738436D01*
X8597400Y41738442D01*
X8597400Y41881499D01*
X8597399Y41881500D01*
X5697401Y41881500D01*
X5697400Y41881499D01*
X5397400Y41881499D01*
X5397399Y41881500D01*
X2497401Y41881500D01*
X2497400Y41881499D01*
X313323Y41881499D01*
X313323Y42324565D01*
X2497400Y42324565D01*
X2497400Y42181501D01*
X2497401Y42181500D01*
X5397399Y42181500D01*
X5397400Y42181501D01*
X5397400Y42831499D01*
X5697400Y42831499D01*
X5697400Y42181501D01*
X5697401Y42181500D01*
X8597399Y42181500D01*
X8597400Y42181501D01*
X8597400Y42324559D01*
X8597399Y42324565D01*
X8586786Y42412944D01*
X8531319Y42553596D01*
X8439964Y42674065D01*
X8319495Y42765420D01*
X8178843Y42820887D01*
X8090464Y42831500D01*
X5697401Y42831500D01*
X5697400Y42831499D01*
X5397400Y42831499D01*
X5397399Y42831500D01*
X3004335Y42831500D01*
X2915956Y42820887D01*
X2775304Y42765420D01*
X2654835Y42674065D01*
X2563480Y42553596D01*
X2508013Y42412944D01*
X2497400Y42324565D01*
X313323Y42324565D01*
X313323Y45024607D01*
X1496900Y45024607D01*
X1496900Y43838394D01*
X1507523Y43749935D01*
X1563037Y43609161D01*
X1563038Y43609159D01*
X1563039Y43609158D01*
X1654478Y43488578D01*
X1775058Y43397139D01*
X1775059Y43397139D01*
X1775060Y43397138D01*
X1822069Y43378600D01*
X1915836Y43341623D01*
X2004298Y43331000D01*
X2004300Y43331000D01*
X4590500Y43331000D01*
X4590502Y43331000D01*
X4678964Y43341623D01*
X4819742Y43397139D01*
X4940322Y43488578D01*
X5031761Y43609158D01*
X5087277Y43749936D01*
X5097900Y43838398D01*
X5097900Y45024602D01*
X5087277Y45113064D01*
X5031761Y45253842D01*
X4940322Y45374422D01*
X4819742Y45465861D01*
X4819741Y45465862D01*
X4819739Y45465863D01*
X4678965Y45521377D01*
X4590506Y45532000D01*
X4590502Y45532000D01*
X2004298Y45532000D01*
X2004293Y45532000D01*
X1915834Y45521377D01*
X1775060Y45465863D01*
X1775056Y45465860D01*
X1654481Y45374425D01*
X1654475Y45374419D01*
X1563040Y45253844D01*
X1563037Y45253840D01*
X1507523Y45113066D01*
X1496900Y45024607D01*
X313323Y45024607D01*
X313323Y49522173D01*
X313331Y49523446D01*
X314610Y49622889D01*
X315831Y49717822D01*
X316363Y49726875D01*
X357065Y50114111D01*
X358684Y50124323D01*
X392180Y50281905D01*
X1990885Y50281905D01*
X1990885Y50033742D01*
X2024015Y49835200D01*
X2031731Y49788964D01*
X2087250Y49627242D01*
X2112310Y49554244D01*
X2230421Y49335995D01*
X2230423Y49335992D01*
X2286268Y49264243D01*
X2382846Y49140160D01*
X2565425Y48972084D01*
X2565427Y48972083D01*
X2565429Y48972081D01*
X2773173Y48836355D01*
X2773178Y48836352D01*
X3000439Y48736666D01*
X3241008Y48675746D01*
X3488323Y48655252D01*
X3735638Y48675746D01*
X3976207Y48736666D01*
X4203468Y48836352D01*
X4411221Y48972084D01*
X4593800Y49140160D01*
X4746225Y49335995D01*
X4864337Y49554247D01*
X4944915Y49788964D01*
X4985761Y50033742D01*
X4988323Y50157823D01*
X4985761Y50281904D01*
X4944915Y50526682D01*
X4864337Y50761399D01*
X4746225Y50979651D01*
X4593800Y51175486D01*
X4411221Y51343562D01*
X4411218Y51343564D01*
X4411216Y51343566D01*
X4203472Y51479292D01*
X4203467Y51479295D01*
X3976207Y51578980D01*
X3735636Y51639901D01*
X3488323Y51660393D01*
X3241009Y51639901D01*
X3000438Y51578980D01*
X2773178Y51479295D01*
X2773173Y51479292D01*
X2565429Y51343566D01*
X2382843Y51175483D01*
X2230423Y50979655D01*
X2230421Y50979652D01*
X2112310Y50761403D01*
X2031730Y50526679D01*
X1990885Y50281905D01*
X392180Y50281905D01*
X439504Y50504540D01*
X442181Y50514531D01*
X562301Y50884214D01*
X566013Y50893884D01*
X585391Y50937406D01*
X724119Y51248992D01*
X728822Y51258219D01*
X923179Y51594851D01*
X928805Y51603516D01*
X1157297Y51918002D01*
X1163802Y51926034D01*
X1423911Y52214913D01*
X1431219Y52222221D01*
X1720101Y52482328D01*
X1728135Y52488833D01*
X2042617Y52717315D01*
X2051292Y52722949D01*
X2387933Y52917305D01*
X2397157Y52922005D01*
X2752258Y53080104D01*
X2761914Y53083811D01*
X3131616Y53203932D01*
X3141598Y53206607D01*
X3521832Y53287426D01*
X3532042Y53289042D01*
X3919283Y53329741D01*
X3928307Y53330274D01*
X4122711Y53332816D01*
X4124005Y53332823D01*
X26982638Y53332823D01*
X26983934Y53332815D01*
G37*
%TD.AperFunction*%
%TD*%
M02*
